<svg id="Camada_1" data-name="Camada 1" xmlns="http://www.w3.org/2000/svg" viewBox="0 0 50 50"><defs><style>.cls-1{fill:#820000;}.cls-2{fill:#67ae3e;}.cls-3{fill:#fefefe;}</style></defs><title>brand</title><g id="D7awSu.tif"><path class="cls-1" d="M39.58,9.33c0,.16.13.2.21.28a31.48,31.48,0,0,1,4,4.74A11.69,11.69,0,0,1,45.41,18a35,35,0,0,1,1.17,5,6.23,6.23,0,0,1,0,1.51,5.28,5.28,0,0,0,0,1.4,4.35,4.35,0,0,1-.4,2.44.69.69,0,0,0,.06.8.41.41,0,0,1,0,.51A16.48,16.48,0,0,1,45,31.69a6.46,6.46,0,0,0-.84,1.57,14.67,14.67,0,0,1-2.09,3.45c-.56.8-1.06,1.65-1.59,2.48h0c-.08,0-.11.07-.12.14a1.77,1.77,0,0,1-.53.65,28.33,28.33,0,0,1-2.46,2.45,17.46,17.46,0,0,1-6.27,3,19.47,19.47,0,0,1-4.27.64,22.33,22.33,0,0,1-6.8-.48,24,24,0,0,1-8-3.85,6.77,6.77,0,0,1-1.69-1.45l0,0,.94.32a.67.67,0,0,1,.44.36,1,1,0,0,0,.52.52c.31.17.62.35.94.49,1.22.54,2.33,1.31,3.59,1.81A16.82,16.82,0,0,0,20.83,45c1.27.16,2.55.29,3.83.33a18,18,0,0,0,4.14-.29,19.74,19.74,0,0,0,5.25-2,16.13,16.13,0,0,0,2.25-1.38.26.26,0,0,0,.2-.14.25.25,0,0,0,.2-.14l.08,0,0,0s-.05,0,0,.06-.2,0-.21.14a.19.19,0,0,0-.23.12.79.79,0,0,0-.34.16,19.38,19.38,0,0,1-2.7,1.37,20.44,20.44,0,0,1-9,1.54A21.31,21.31,0,0,1,19.74,44a22.45,22.45,0,0,1-6.68-3.17A15.49,15.49,0,0,1,7.34,33.9a26.5,26.5,0,0,1-1.08-3.16c.24.21.25.56.48.76.55,1.21,1.31,2.31,2,3.47,0,.08.16.08.18.18h0c-.09-.18-.17-.37-.26-.55C8,33.41,7.42,32.23,6.94,31a16.59,16.59,0,0,1-1.22-6.52c.07-.66.12-1.32.21-2A14,14,0,0,1,7.26,18a1.39,1.39,0,0,1,.41-.58A13.67,13.67,0,0,1,7.37,19,20.88,20.88,0,0,0,6.57,22,17.75,17.75,0,0,0,6.5,28,18.79,18.79,0,0,0,10,36.34a1.79,1.79,0,0,0,.51.59s0,.07.07.06h0a.16.16,0,0,0,.07.15h0l.07.08h0l.07.08h0l.07.08h0a15.55,15.55,0,0,0,3.51,3.12,18.47,18.47,0,0,0,12.94,3.08,17.93,17.93,0,0,0,7.56-2.82,19,19,0,0,0,6-6.41,19.82,19.82,0,0,0,2.61-13.61A15.7,15.7,0,0,0,42,15.93a.12.12,0,0,0-.08-.15h0c0-.11-.05-.2-.1-.29A16.87,16.87,0,0,0,39.54,12,18.43,18.43,0,0,0,29.71,6a12,12,0,0,0-3-.42c-.8,0-1.59.2-2.39.21a.19.19,0,0,0-.19.12.54.54,0,0,1-.39.26,6.7,6.7,0,0,1-1.14.22A39,39,0,0,0,18.76,7c-.2,0-.36.11-.36.34,0,.4-.25.54-.59.65a2,2,0,0,0-1,.55h0a.08.08,0,0,0-.09.06c-.87.62-1.72,1.28-2.53,2a.21.21,0,0,0-.2.16h0s-.08,0-.08.06h0s-.07,0-.08.07h0c-.07,0-.12,0-.12.09v0h0c-.05,0-.08,0-.08.06h0s-.08,0-.08.07h0s-.07,0-.07.07h0c-.07,0-.12,0-.12.09h0c-.05,0-.08,0-.08.06h0s-.08,0-.07.07h0s-.08,0-.07.07h0c-.05,0-.08,0-.07.07h0c-.08,0-.13,0-.12.09h0c-.14-.06-.2.07-.28.14a19.3,19.3,0,0,0-2.78,2.7c-.19.23-.19.23-.35,0l-.22.25c-.07-.38-.22-.27-.37-.09s-.23.29-.36.46c-.11-.2,0-.49-.18-.52s-.29.22-.42.37a10.33,10.33,0,0,0-1.11,1.69c-.18.32-.43.32-.63,0A2.2,2.2,0,0,1,6,16a2.14,2.14,0,0,0-.78-1.18.46.46,0,0,1,0-.42A2.07,2.07,0,0,0,5.44,13a2.07,2.07,0,0,0,.33-.6,11.78,11.78,0,0,1,4.32-5.13,1.56,1.56,0,0,1,.27-.16c.13-.06.26-.05.26.14s.13.18.26.09l.7-.5c.05,0,.14-.12.17-.07.17.34.29,0,.35,0a10,10,0,0,1,3.29-2A28.53,28.53,0,0,1,20,3.58a4.87,4.87,0,0,0,1.46-.15,19.63,19.63,0,0,1,9.43.8L33.4,5a2.56,2.56,0,0,1,.82.42,23.13,23.13,0,0,0,2.13,1.44.07.07,0,0,0,.08.05h0a.11.11,0,0,0,.14.08h0a31.3,31.3,0,0,1,2.78,2.21l.11.08h0c0,.06,0,.14.14.08Z"/><path class="cls-2" d="M20,3.58a28.53,28.53,0,0,0-4.67,1.15,10,10,0,0,0-3.29,2c-.06.06-.18.39-.35,0,0-.05-.12,0-.17.07l-.7.5c-.12.09-.26.18-.26-.09s-.12-.2-.26-.14a1.56,1.56,0,0,0-.27.16,11.78,11.78,0,0,0-4.32,5.13,2.07,2.07,0,0,1-.33.6,17.54,17.54,0,0,0-1.68,3.22s0,.07,0,.1a2.23,2.23,0,0,1-.26,1.25,22.82,22.82,0,0,0-.84,11.26A19.71,19.71,0,0,0,4,33.57a24,24,0,0,0,7.62,9c.15.12.34.22.49,0s0-.35-.15-.48a27.61,27.61,0,0,1-4.33-4A13.79,13.79,0,0,1,5,34a34,34,0,0,1-1.63-6.09A17.59,17.59,0,0,1,3,22.74a12.17,12.17,0,0,1,.34-2.16l.23.38a1,1,0,0,0,1.43.4,2.52,2.52,0,0,0,.83-3.16,1.19,1.19,0,0,0-1.17-.62,2.61,2.61,0,0,0-.61.29,14.8,14.8,0,0,1,1.24-3.05A2.14,2.14,0,0,1,6,16a2.2,2.2,0,0,0,.26.6c.19.31.44.3.63,0A10.33,10.33,0,0,1,8,14.88c.13-.14.24-.39.42-.37s.07.32.18.52c.13-.17.24-.32.36-.46s.31-.29.37.09l.22-.25c.16.25.16.25.35,0a19.3,19.3,0,0,1,2.78-2.7c.08-.07.14-.2.28-.14,0,.13-.14.18-.22.25a17.31,17.31,0,0,0-1.83,2,23.78,23.78,0,0,0-4.1,8.1,4.14,4.14,0,0,0-.2.8,17.81,17.81,0,0,0,1.7,9.78,13.87,13.87,0,0,0,1.75,2.82.89.89,0,0,0,.23.31.54.54,0,0,0,.31.3.63.63,0,0,0-.24-.38.85.85,0,0,0-.24-.31L10,35A16,16,0,0,1,8.1,31.64a16.67,16.67,0,0,1-1.19-5.9A16.16,16.16,0,0,1,7,23.3c.06-.45.26-.71.52-.64s.31.44.31.71-.06.73-.08,1.1a16.34,16.34,0,0,0,1,6.68,13.34,13.34,0,0,0,5.29,6.71,1.24,1.24,0,0,1,.53.52.31.31,0,0,1,0,.35.29.29,0,0,1-.34.09,2,2,0,0,1-.3-.16,14.19,14.19,0,0,1-3-2.5c-.08-.08-.14-.2-.28-.22s.06.19.11.25a16.93,16.93,0,0,0,7.1,4.92,16,16,0,0,0,6.21,1c.17,0,.36,0,.5.1,0,.11-.11.1-.18.1a15.32,15.32,0,0,1-4-.09,16.82,16.82,0,0,1-8.26-3.75,15.93,15.93,0,0,0-1.29-1.12h0a.06.06,0,0,0-.07-.08h0a.07.07,0,0,0-.07-.08h0a.08.08,0,0,0-.07-.08h0L10.6,37h0l-.07-.06a1.79,1.79,0,0,1-.51-.59A18.79,18.79,0,0,1,6.5,28,17.75,17.75,0,0,1,6.57,22,20.88,20.88,0,0,1,7.37,19a13.67,13.67,0,0,0,.3-1.54,1.39,1.39,0,0,0-.41.58,14,14,0,0,0-1.34,4.49c-.09.66-.14,1.32-.21,2,0-.1,0-.2,0-.31a17.49,17.49,0,0,1,.54-4c.14-.55.3-1.1.46-1.68a.45.45,0,0,0-.2.28,18.52,18.52,0,0,0-1.19,4.08,4.14,4.14,0,0,0-.15,1.39,9.06,9.06,0,0,1,.13,1.36,15.56,15.56,0,0,0,.32,2.59c0,.11,0,.25.18.28s.15.16.18.27l.76,2.78c-.23-.21-.25-.55-.48-.76A26.5,26.5,0,0,0,7.34,33.9a15.49,15.49,0,0,0,5.72,6.93A22.45,22.45,0,0,0,19.74,44a21.31,21.31,0,0,0,4.53.72,20.44,20.44,0,0,0,9-1.54,19.38,19.38,0,0,0,2.7-1.37.78.78,0,0,1,.34-.16l0,0A16.13,16.13,0,0,1,34,43.05a19.74,19.74,0,0,1-5.25,2,18,18,0,0,1-4.14.29c-1.29,0-2.56-.16-3.83-.33a16.82,16.82,0,0,1-4.05-1.24c-1.26-.5-2.36-1.26-3.59-1.81-.32-.14-.63-.32-.94-.49a1,1,0,0,1-.52-.52.67.67,0,0,0-.44-.36l-.94-.32s-.07-.07-.1,0,0,.05.06.08A6.77,6.77,0,0,0,12,41.77a24,24,0,0,0,8,3.85,22.33,22.33,0,0,0,6.8.48,19.47,19.47,0,0,0,4.27-.64,17.46,17.46,0,0,0,6.27-3A28.33,28.33,0,0,0,39.84,40a1.77,1.77,0,0,0,.53-.65c.08,0,.2,0,.12-.14h0c.13.14.18,0,.23-.08A25.34,25.34,0,0,0,44,34.62c.1-.17.12-.37.28-.51s.08-.09.14-.07.07.12.06.17a4.21,4.21,0,0,1-.22.68A20.78,20.78,0,0,1,28.9,46.83a21.71,21.71,0,0,1-8.07,0,3.66,3.66,0,0,0-1,0,1.44,1.44,0,0,0,.75.27,30.53,30.53,0,0,0,6,.35,25.37,25.37,0,0,0,8.18-1.5,15.46,15.46,0,0,0,4.51-2.72,23.55,23.55,0,0,0,7-9.44,10.84,10.84,0,0,0,.53-2.41A19.12,19.12,0,0,0,47,26.69c0-.31-.07-.61-.11-.92a1.13,1.13,0,0,1,0-.66,6.93,6.93,0,0,1,.25,1.64,17.58,17.58,0,0,1-1,7.48,19.17,19.17,0,0,1-3.17,5.25A22.71,22.71,0,0,1,37,45a21.33,21.33,0,0,1-7.46,2.67,23.42,23.42,0,0,1-5.69.21h-.16c.15.13.31.25.23.44a.46.46,0,0,1-.5.23,18.83,18.83,0,0,1-2.61-.44A35.94,35.94,0,0,1,14.3,46c-.29-.13-.6-.24-.89-.37a1.45,1.45,0,0,1-.33-.24.35.35,0,0,1-.11-.43c.07-.15.21-.16.36-.14s.13,0,.21,0A4.6,4.6,0,0,0,11.92,44a3.37,3.37,0,0,1-.79-.4A21.7,21.7,0,0,1,2,31a21.62,21.62,0,0,1-.81-7A23.09,23.09,0,0,1,8.76,7.64,23.71,23.71,0,0,1,20.43,1.75a25,25,0,0,1,6.91-.42,27.15,27.15,0,0,1,10.5,3,2,2,0,0,1,.69.51A.93.93,0,0,1,38,4.7a30.77,30.77,0,0,0-7.19-2.59,26.19,26.19,0,0,0-7.15-.49,11.47,11.47,0,0,0-2.75.52c.62-.08,1.25-.16,1.87-.23a23.29,23.29,0,0,1,5,.06,34.08,34.08,0,0,1,6.6,1.74,4,4,0,0,1,1.34.7c.24.19.38.4.22.71s-.42.29-.68.23A20.56,20.56,0,0,1,33,4.51,23.65,23.65,0,0,0,23.55,3a19.24,19.24,0,0,0-3.17.41C20.27,3.49,20.13,3.47,20,3.58ZM5,25a1.41,1.41,0,0,0-.24-.87.82.82,0,0,0-1.44,0,1.65,1.65,0,0,0,0,1.73.79.79,0,0,0,.73.43.84.84,0,0,0,.83-.49A1.66,1.66,0,0,0,5,25Zm.2,5.22a1.37,1.37,0,0,0-.29-1,.44.44,0,0,0-.77.1,1.55,1.55,0,0,0,0,1.48.47.47,0,0,0,.48.26.52.52,0,0,0,.44-.34A1.17,1.17,0,0,0,5.24,30.26Z"/><path class="cls-2" d="M39.35,9.17A31.3,31.3,0,0,0,36.57,7a10.41,10.41,0,0,1,1.9,1,22.57,22.57,0,0,1,8.66,9.59A21.22,21.22,0,0,1,49,24.15a2.89,2.89,0,0,1,0,.62c0,.13,0,.36-.17.35s-.13-.21-.15-.35c0-.33-.08-.66-.13-1a21.91,21.91,0,0,0-8.25-14c-.22-.18-.41-.42-.72-.47h0c0-.08,0-.14-.14-.08h0C39.47,9.16,39.41,9.16,39.35,9.17Z"/><path class="cls-2" d="M36.57,7a.11.11,0,0,1-.14-.08C36.49,6.88,36.55,6.89,36.57,7Z"/><path class="cls-2" d="M36.44,6.89a.07.07,0,0,1-.08-.05A.07.07,0,0,1,36.44,6.89Z"/><path class="cls-2" d="M41.92,15.79c-.43-.58-.85-1.17-1.3-1.72a19.75,19.75,0,0,0-12-7.19,19.22,19.22,0,0,0-9.31.55.66.66,0,0,0-.42.26.57.57,0,0,1-.24.19,12.18,12.18,0,0,1-1.87.68,2,2,0,0,1,1-.55c.34-.11.58-.25.59-.65,0-.23.16-.29.36-.34a39,39,0,0,1,3.85-.68,6.7,6.7,0,0,0,1.14-.22.54.54,0,0,0,.39-.26.19.19,0,0,1,.19-.12c.8,0,1.59-.2,2.39-.21a12,12,0,0,1,3,.42A18.43,18.43,0,0,1,39.54,12a16.87,16.87,0,0,1,2.28,3.47C41.87,15.6,41.94,15.68,41.92,15.79Z"/><path class="cls-2" d="M36.5,41.53a.26.26,0,0,1-.2.14l0,0a.19.19,0,0,1,.23-.12Z"/><path class="cls-2" d="M36.5,41.54c0-.13.11-.14.21-.14h0a.25.25,0,0,1-.2.14Z"/><path class="cls-2" d="M14.19,10.6c0,.09-.09.16-.2.16A.21.21,0,0,1,14.19,10.6Z"/><path class="cls-3" d="M40.48,39.19c.09.15,0,.13-.12.14S40.4,39.2,40.48,39.19Z"/><path class="cls-2" d="M13.5,11.16a.1.1,0,0,1-.12.09C13.38,11.17,13.42,11.15,13.5,11.16Z"/><path class="cls-2" d="M36.71,41.4s0-.06,0-.06l0,0-.08,0Z"/><path class="cls-3" d="M39.46,9.24c.09-.06.12,0,.14.08S39.48,9.3,39.46,9.24Z"/><path class="cls-2" d="M13.08,11.5a.09.09,0,0,1-.12.09C13,11.5,13,11.49,13.08,11.5Z"/><path class="cls-2" d="M42,15.93a.14.14,0,0,1-.08-.15A.12.12,0,0,1,42,15.93Z"/><path class="cls-2" d="M13.84,10.89a.1.1,0,0,1-.12.09C13.72,10.9,13.77,10.87,13.84,10.89Z"/><path class="cls-3" d="M10.6,37l.07.15A.16.16,0,0,1,10.6,37Z"/><path class="cls-2" d="M16.81,8.55c0,.05,0,.06-.09.06A.08.08,0,0,1,16.81,8.55Z"/><path class="cls-3" d="M10.54,36.93l.07.06C10.56,37,10.55,37,10.54,36.93Z"/><path class="cls-3" d="M10.67,37.13a.08.08,0,0,1,.07.08Z"/><path class="cls-3" d="M10.74,37.2a.07.07,0,0,1,.07.08Z"/><path class="cls-3" d="M10.81,37.26a.06.06,0,0,1,.07.08Z"/><path class="cls-3" d="M39.35,9.17c.06,0,.11,0,.11.08Z"/><polygon class="cls-3" points="8.88 35.14 8.89 35.13 8.88 35.15 8.88 35.14"/><path class="cls-2" d="M14,10.76c0,.05,0,.07-.08.06S13.94,10.75,14,10.76Z"/><path class="cls-2" d="M13.91,10.82s0,.07-.08.07S13.87,10.82,13.91,10.82Z"/><path class="cls-2" d="M13.72,11c0,.05,0,.07-.08.06S13.67,11,13.72,11Z"/><path class="cls-2" d="M13.15,11.44c0,.05,0,.07-.07.07S13.1,11.43,13.15,11.44Z"/><path class="cls-2" d="M13.23,11.37c0,.05,0,.07-.07.07S13.18,11.37,13.23,11.37Z"/><path class="cls-2" d="M13.3,11.31c0,.05,0,.07-.07.07S13.25,11.3,13.3,11.31Z"/><path class="cls-2" d="M13.37,11.25q0,.08-.08.06C13.3,11.26,13.32,11.24,13.37,11.25Z"/><path class="cls-2" d="M13.57,11.1c0,.05,0,.07-.07.07S13.52,11.09,13.57,11.1Z"/><path class="cls-2" d="M13.64,11c0,.05,0,.07-.08.07S13.59,11,13.64,11Z"/><path class="cls-1" d="M3.3,20.57a3,3,0,0,1,.37-2.23c.1-.16.22-.32.33-.48a2.62,2.62,0,0,1,.61-.29,1.19,1.19,0,0,1,1.17.62A2.52,2.52,0,0,1,5,21.35,1,1,0,0,1,3.52,21Z"/><path class="cls-1" d="M5,25a1.66,1.66,0,0,1-.15.81.84.84,0,0,1-.83.49.79.79,0,0,1-.73-.43,1.65,1.65,0,0,1,0-1.73.82.82,0,0,1,1.44,0A1.41,1.41,0,0,1,5,25Z"/><path class="cls-1" d="M5.24,30.26a1.17,1.17,0,0,1-.09.52.52.52,0,0,1-.44.34.47.47,0,0,1-.48-.26,1.55,1.55,0,0,1,0-1.48.44.44,0,0,1,.77-.1A1.37,1.37,0,0,1,5.24,30.26Z"/><path class="cls-3" d="M10.38,35.56a.63.63,0,0,1,.24.38.54.54,0,0,1-.31-.3Z"/><path class="cls-1" d="M10.3,40.33s-.09,0-.06-.08.07,0,.1,0Z"/></g></svg>