<?xml version="1.0" encoding="utf-8"?>
<!-- Generator: Adobe Illustrator 21.0.2, SVG Export Plug-In . SVG Version: 6.00 Build 0)  -->
<svg version="1.1" id="Camada_1" xmlns="http://www.w3.org/2000/svg" xmlns:xlink="http://www.w3.org/1999/xlink" x="0px" y="0px"
	 viewBox="0 0 174 170" style="enable-background:new 0 0 174 170;" xml:space="preserve">
<style type="text/css">
	.st0{fill:#6B0905;}
	.st1{fill:#80AC4B;}
	.st2{fill:#FEFEFE;}
</style>
<title>brand1</title>
<path d="M115.3,116.2c-0.8,0.3-1.6,0-2-0.7c-2.1-3.2-4.2-6.4-6.4-9.6c-0.1-0.2-0.2-0.4-0.4-0.7h1.5c2,0,3.7-1.7,3.7-3.7
	c0-2-1.6-3.7-3.7-3.7c-1.2,0-2.4,0-3.8,0v18.5H103V96.6c1.9,0,3.7-0.1,5.6,0c2.3,0.3,4.1,2.1,4.2,4.4c0.2,2.4-1.3,4.6-3.6,5.2
	l-0.6,0.2L115.3,116.2z"/>
<path d="M137.9,106.4c0,1.6,0,3.3,0,4.9c0,2.6-1.9,4.7-4.5,4.9c-2.7,0.2-5-1.7-5.4-4.4c0-0.1,0-0.2,0-0.3c0-3.4,0-6.8,0-10.1
	c0.1-2.7,2.3-4.9,5.1-4.8c2.6,0.1,4.6,2.1,4.8,4.6c0,0.1,0,0.1,0,0.2C137.9,103.1,137.9,104.8,137.9,106.4z M136.7,106.4
	L136.7,106.4c0-1.6,0-3.2,0-4.8c0-2.4,0-0.1,0-0.1c0.1-2.1-1.5-3.8-3.5-3.9c-2.1-0.1-3.8,1.5-3.9,3.5c0,0.1,0,0.3,0,0.4
	c0,3.2,0,6.5,0,9.7c0,0.5,0.1,0.9,0.2,1.3c0.6,1.9,2.7,3,4.7,2.3c1.5-0.5,2.5-1.9,2.5-3.4C136.7,109.8,136.7,108.1,136.7,106.4
	L136.7,106.4z"/>
<path d="M80.5,116.3V96.6c5.4,0,9.8,4.5,9.8,9.9c0,1.5-0.4,3.1-1.1,4.4C87.6,114.3,84.2,116.4,80.5,116.3z M81.7,97.9v17
	c4.4-0.6,7.6-4.5,7.4-8.9C88.9,101.9,85.1,97.7,81.7,97.9L81.7,97.9z"/>
<path d="M67.7,96.6v1.2h-8.6v8h6.1v1.2h-6.1v8h8.5v1.2h-9.8V96.6H67.7z"/>
<path d="M38.4,106.5v-1.3h1.7c2,0.1,3.8-1.5,3.9-3.5c0.1-2-1.5-3.8-3.5-3.9c-0.1,0-0.3,0-0.4,0h-3.6v18.5h-1.2V96.7c2-0.1,4-0.1,6,0
	c2.3,0.4,3.9,2.5,3.8,4.8c0,2.3-1.6,4.3-3.8,4.8C40.4,106.4,39.4,106.4,38.4,106.5z"/>
<g id="UGRdFw.tif">
	<g id="D7awSu.tif">
		<path class="st0" d="M111,13.7c0,0.3,0.2,0.4,0.4,0.5c2.7,2.6,5.1,5.4,7.2,8.5c1.3,2,2.3,4.2,2.8,6.5c0.9,2.9,1.6,5.9,2.1,8.9
			c0.1,0.9,0.1,1.8,0,2.7c-0.1,0.8-0.1,1.7,0.1,2.5c0.2,1.5-0.1,3-0.7,4.4c-0.3,0.5-0.2,1,0.1,1.4c0.2,0.3,0.2,0.6,0,0.9
			c-0.7,1.3-1.5,2.5-2.3,3.7c-0.6,0.9-1.1,1.8-1.5,2.8c-1,2.2-2.2,4.3-3.7,6.2c-1,1.4-1.9,2.9-2.8,4.4l0,0c-0.2,0-0.2,0.1-0.2,0.2
			c-0.2,0.5-0.5,0.9-0.9,1.2c-1.4,1.5-2.8,3-4.4,4.4c-3.3,2.5-7.1,4.4-11.2,5.4c-2.5,0.7-5.1,1-7.6,1.1c-4.1,0.3-8.2,0.1-12.1-0.8
			c-5.2-1.4-10.1-3.7-14.4-6.9c-1.1-0.7-2.1-1.6-3-2.6l0.1-0.1c0.6,0.2,1.1,0.4,1.7,0.6c0.3,0.1,0.6,0.3,0.8,0.6
			c0.2,0.4,0.5,0.7,0.9,0.9c0.6,0.3,1.1,0.6,1.7,0.9c2.2,1,4.2,2.3,6.4,3.2c2.3,1,4.7,1.8,7.2,2.2c2.3,0.3,4.6,0.5,6.8,0.6
			c2.5,0.1,5-0.1,7.4-0.5c3.3-0.7,6.5-1.9,9.4-3.5c1.4-0.7,2.7-1.5,4-2.5c0.2,0,0.3-0.1,0.4-0.3c0.2,0,0.3-0.1,0.4-0.2l0.1,0l0,0
			c-0.1,0-0.1,0-0.1,0.1c-0.2,0-0.3,0-0.4,0.2c-0.2,0-0.3,0-0.4,0.2c-0.2,0-0.4,0.1-0.6,0.3c-1.5,0.9-3.2,1.7-4.8,2.4
			c-5.1,2.1-10.5,3-16,2.8c-2.7-0.1-5.5-0.6-8.1-1.3c-4.3-1.2-8.3-3.1-11.9-5.7c-4.6-3-8.1-7.3-10.2-12.4c-0.8-1.8-1.4-3.7-1.9-5.6
			c0.4,0.4,0.5,1,0.9,1.4c1,2.2,2.3,4.1,3.5,6.2c0.1,0.2,0.3,0.1,0.3,0.3l0,0l0,0c-0.2-0.3-0.3-0.7-0.5-1c-1.1-2.1-2.1-4.2-3-6.4
			c-1.5-3.7-2.2-7.7-2.2-11.7c0.1-1.2,0.2-2.4,0.4-3.5c0.3-2.8,1.2-5.5,2.4-8c0.2-0.4,0.4-0.7,0.7-1c-0.1,0.9-0.3,1.8-0.5,2.8
			c-0.6,1.8-1.1,3.6-1.4,5.5c-0.6,3.5-0.7,7-0.2,10.5c0.8,5.4,3,10.6,6.3,15c0.2,0.4,0.5,0.7,0.9,1c0,0.1,0,0.1,0.1,0.1l0,0
			c0,0.1,0,0.2,0.1,0.3l0,0l0.1,0.1l0,0l0.1,0.1l0,0l0.1,0.1l0,0c1.8,2.2,3.9,4,6.2,5.5c6.8,4.6,15,6.6,23.1,5.5
			c4.8-0.6,9.4-2.3,13.5-5c4.4-2.9,8.1-6.9,10.8-11.5c4.5-7.3,6.1-15.9,4.7-24.4c-0.4-3-1.4-5.8-2.7-8.5c0-0.1,0-0.2-0.2-0.3l0,0
			c0-0.2-0.1-0.4-0.2-0.5c-1.1-2.2-2.4-4.3-4-6.2c-4.5-5.4-10.7-9.2-17.6-10.9c-1.7-0.5-3.5-0.7-5.3-0.8c-1.4,0-2.8,0.4-4.3,0.4
			c-0.1,0-0.3,0.1-0.3,0.2C83.3,7.8,83,8,82.8,8c-0.7,0.2-1.3,0.3-2,0.4c-2.3,0.3-4.6,0.7-6.9,1.2c-0.3,0.1-0.6,0.2-0.6,0.6
			c0,0.7-0.4,1-1,1.2c-0.7,0.1-1.3,0.5-1.8,1l0,0c-0.1,0-0.2,0-0.2,0.1c-1.6,1.1-3.1,2.3-4.5,3.6c-0.2,0-0.3,0.1-0.4,0.3l0,0
			c-0.1,0-0.1,0-0.1,0.1l0,0c-0.1,0-0.1,0-0.1,0.1l0,0c-0.1,0-0.2,0-0.2,0.2l0,0l0,0c-0.1,0-0.1,0-0.1,0.1l0,0c-0.1,0-0.1,0-0.1,0.1
			l0,0c-0.1,0-0.1,0-0.1,0.1l0,0c-0.1,0-0.2,0-0.2,0.2l0,0l0,0c-0.1,0-0.1,0-0.1,0.1l0,0c-0.1,0-0.1,0-0.1,0.1l0,0
			c-0.1,0-0.1,0-0.1,0.1l0,0c-0.1,0-0.1,0-0.1,0.1l0,0c-0.1,0-0.2,0-0.2,0.2l0,0c-0.3-0.1-0.4,0.1-0.5,0.2c-1.8,1.4-3.5,3-5,4.8
			c-0.3,0.4-0.3,0.4-0.6,0L57,23.4c-0.1-0.7-0.4-0.5-0.7-0.2s-0.4,0.5-0.6,0.8c-0.2-0.4,0-0.9-0.3-0.9s-0.5,0.4-0.7,0.7
			c-0.8,0.9-1.4,1.9-2,3c-0.3,0.6-0.8,0.6-1.1,0c-0.2-0.3-0.4-0.7-0.5-1.1c-0.2-0.8-0.7-1.6-1.4-2.1c-0.1-0.2-0.1-0.5,0-0.8
			c0.4-0.7,0.6-1.6,0.4-2.5c0.3-0.3,0.5-0.7,0.6-1.1c1.6-3.7,4.3-6.9,7.7-9.2c0.1-0.1,0.3-0.2,0.5-0.3c0.2-0.1,0.5-0.1,0.5,0.2
			s0.2,0.3,0.5,0.2l1.2-1c0.1-0.1,0.2-0.2,0.3-0.1c0.3,0.6,0.5,0,0.6-0.1c1.7-1.6,3.7-2.8,5.9-3.6c2.7-1.1,5.6-1.4,8.3-2.1
			c0.9,0,1.8,0,2.6-0.3c5.6-0.9,11.4-0.4,16.8,1.4C97,5.1,98.5,5.5,100,6c0.5,0.2,1,0.4,1.5,0.7c1.2,0.9,2.5,1.8,3.8,2.6
			c0,0.1,0.1,0.1,0.2,0.1l0,0c0,0.1,0.1,0.2,0.2,0.1l0,0c1.7,1.2,3.4,2.5,5,3.9l0.2,0.1l0,0c0.1,0.1,0.1,0.3,0.2,0.1L111,13.7z"/>
		<path class="st1" d="M76.1,3.5c-2.8,0.6-5.7,0.9-8.3,2.1c-2.2,0.8-4.2,2-5.9,3.6c-0.1,0.1-0.3,0.7-0.6,0.1c0-0.1-0.2,0.1-0.3,0.1
			l-1.2,0.9c-0.2,0.1-0.5,0.3-0.5-0.2s-0.2-0.4-0.5-0.2c-0.2,0.1-0.3,0.2-0.5,0.3c-3.4,2.2-6.1,5.4-7.7,9.2
			c-0.1,0.4-0.4,0.8-0.6,1.1c-1.2,1.8-2.2,3.7-3,5.8c0,0.1-0.1,0.1-0.1,0.2c0.1,0.8-0.1,1.5-0.5,2.2c-2.2,6.5-2.7,13.4-1.5,20.1
			c0.5,2.9,1.4,5.7,2.5,8.4c3,6.7,7.9,11.7,13.6,16.1c0.3,0.2,0.6,0.4,0.9,0.1s0-0.6-0.3-0.9c-2.8-2.1-5.4-4.5-7.8-7.1
			c-2-2.2-3.6-4.7-4.7-7.4c-1.3-3.5-2.3-7.2-2.9-10.9c-0.7-3-1-6.1-0.8-9.2c0.1-1.3,0.3-2.6,0.6-3.9c0.1,0.2,0.3,0.5,0.4,0.7
			c0.5,0.9,1.6,1.2,2.5,0.7c0,0,0,0,0,0c1.8-1.3,2.4-3.7,1.5-5.6c-0.4-0.8-1.2-1.2-2.1-1.1c-0.4,0.1-0.8,0.3-1.1,0.5
			c0.5-1.9,1.3-3.7,2.2-5.5c0.7,0.5,1.2,1.3,1.4,2.1c0.1,0.4,0.3,0.7,0.5,1.1c0.3,0.6,0.8,0.5,1.1,0c0.6-1.1,1.2-2.1,2-3
			c0.2-0.3,0.4-0.7,0.7-0.7s0.1,0.6,0.3,0.9c0.2-0.3,0.4-0.6,0.6-0.8s0.5-0.5,0.7,0.2l0.4-0.5c0.3,0.4,0.3,0.5,0.6,0
			c1.5-1.8,3.2-3.4,5-4.8c0.1-0.1,0.2-0.4,0.5-0.2c0,0.2-0.2,0.3-0.4,0.5c-1.2,1.1-2.3,2.3-3.3,3.5c-3.4,4.3-5.8,9.2-7.3,14.5
			c-0.2,0.5-0.3,0.9-0.3,1.4c-0.7,6,0.4,12.1,3,17.5c0.8,1.8,1.9,3.5,3.1,5c0.1,0.2,0.2,0.4,0.4,0.6c0.1,0.2,0.3,0.4,0.6,0.5
			c-0.1-0.3-0.2-0.5-0.4-0.7c-0.1-0.2-0.2-0.4-0.4-0.6l-0.3-0.5c-1.3-1.8-2.4-3.8-3.3-6c-1.3-3.3-2.1-6.9-2.1-10.5
			c0-1.5,0-2.9,0.2-4.3c0.1-0.8,0.5-1.3,0.9-1.2c0.7,0.2,0.5,0.8,0.5,1.3c0,0.7-0.1,1.3-0.1,2c-0.2,4.1,0.4,8.1,1.8,11.9
			c1.8,4.9,5.1,9.1,9.5,12c0.4,0.2,0.7,0.5,0.9,0.9c0.1,0.2,0.1,0.5-0.1,0.6c-0.2,0.2-0.4,0.2-0.6,0.2c-0.2-0.1-0.4-0.2-0.5-0.3
			c-2-1.2-3.8-2.7-5.4-4.5c-0.1-0.2-0.2-0.4-0.5-0.4c0,0.2,0.1,0.3,0.2,0.5c3.4,4,7.8,7,12.7,8.8c3.6,1.3,7.3,1.9,11.1,1.7
			c0.3,0,0.7-0.1,0.9,0.2c-0.1,0.2-0.2,0.2-0.3,0.2c-2.4,0.3-4.8,0.2-7.1-0.2c-5.4-0.8-10.5-3.1-14.8-6.7c-0.7-0.7-1.5-1.4-2.3-2
			l0,0c0-0.1,0-0.1-0.1-0.1c0,0,0,0,0,0l0,0c0-0.1,0-0.1-0.1-0.1c0,0,0,0,0,0l0,0c0-0.1-0.1-0.1-0.1-0.1l0,0l-0.1-0.3l0,0L59.2,63
			c-0.4-0.3-0.7-0.6-0.9-1c-3.3-4.4-5.5-9.6-6.3-15c-0.5-3.5-0.5-7.1,0.1-10.6c0.3-1.9,0.8-3.7,1.4-5.5c0.2-0.9,0.4-1.8,0.5-2.7
			c-0.3,0.3-0.6,0.6-0.7,1c-1.2,2.5-2,5.2-2.4,8c-0.2,1.2-0.2,2.3-0.4,3.5c0-0.2,0-0.4,0-0.5c0.1-2.4,0.4-4.8,1-7.2
			c0.2-1,0.5-2,0.8-3c-0.2,0.1-0.3,0.3-0.3,0.5c-1,2.3-1.7,4.8-2.1,7.3c-0.2,0.8-0.3,1.7-0.3,2.5c0.1,0.8,0.2,1.6,0.2,2.4
			c0.1,1.6,0.3,3.1,0.6,4.6c0,0.2,0,0.5,0.3,0.5s0.3,0.3,0.3,0.5l1.3,5C52,53,52,52.3,51.6,52c0.5,1.9,1.2,3.8,1.9,5.6
			c2.1,5,5.6,9.4,10.2,12.4c3.6,2.5,7.7,4.4,11.9,5.7c2.6,0.7,5.4,1.2,8.1,1.3c5.5,0.3,10.9-0.6,16-2.8c1.7-0.7,3.3-1.5,4.8-2.4
			c0.2-0.1,0.4-0.2,0.6-0.3h0.1c-1.3,0.9-2.6,1.8-4,2.5c-2.9,1.6-6.1,2.8-9.4,3.6c-2.4,0.5-4.9,0.6-7.4,0.5
			c-2.3-0.1-4.6-0.3-6.8-0.6c-2.5-0.4-4.9-1.2-7.2-2.2c-2.3-0.8-4.2-2.2-6.4-3.2c-0.6-0.3-1.1-0.6-1.7-0.9c-0.4-0.2-0.7-0.5-0.9-0.9
			c-0.2-0.3-0.4-0.6-0.8-0.6c-0.6-0.2-1.1-0.4-1.7-0.6c0-0.1-0.1-0.1-0.2-0.1s0.1,0.1,0.1,0.1c0.9,1,1.9,1.9,3,2.6
			c4.3,3.2,9.2,5.5,14.4,6.9c4,0.9,8.1,1.2,12.1,0.8c2.6-0.1,5.1-0.5,7.6-1.1c4.1-1,7.9-2.9,11.2-5.4c1.6-1.4,3-2.8,4.4-4.4
			c0.4-0.3,0.7-0.7,0.9-1.2c0.1,0,0.4,0,0.2-0.2l0,0c0.2,0.2,0.3-0.1,0.4-0.2c2.3-2.4,4.2-5.1,5.9-8c0.2-0.3,0.2-0.7,0.5-0.9
			c0.1-0.1,0.1-0.2,0.3-0.1s0.1,0.2,0.1,0.3c-0.1,0.4-0.2,0.8-0.4,1.2C113.8,71,104.6,78.2,92,80.7c-4.8,0.9-9.7,0.9-14.4,0
			c-0.6-0.1-1.2-0.1-1.9-0.1c0.4,0.3,0.8,0.4,1.3,0.4c3.6,0.6,7.2,0.8,10.8,0.6c5-0.1,9.9-1,14.6-2.7c2.9-1.1,5.7-2.8,8.1-4.8
			c5.5-4.5,9.9-10.2,12.6-16.8c0.5-1.4,0.8-2.8,1-4.3c0.5-2.7,0.6-5.5,0.4-8.3c0-0.5-0.1-1.1-0.2-1.7c-0.1-0.4-0.1-0.8,0.1-1.2
			c0.3,1,0.4,1.9,0.4,2.9c0.4,4.5-0.2,9.1-1.7,13.4c-1.4,3.4-3.3,6.6-5.7,9.4c-3,3.9-6.8,7.3-11,9.9c-4.1,2.4-8.6,4-13.3,4.8
			c-3.4,0.5-6.8,0.7-10.2,0.4h-0.3c0.3,0.2,0.6,0.4,0.4,0.8c-0.2,0.3-0.5,0.5-0.9,0.4c-1.6-0.2-3.1-0.4-4.6-0.8
			c-4-0.9-7.8-2.2-11.6-3.8c-0.5-0.2-1.1-0.4-1.6-0.7c-0.2-0.1-0.4-0.3-0.6-0.4c-0.2-0.2-0.3-0.5-0.2-0.8c0.1-0.3,0.4-0.3,0.6-0.3
			c0.3,0,0.2,0.1,0.4,0c-0.9-0.7-1.8-1.1-2.9-1.4c-0.5-0.2-1-0.4-1.4-0.7c-8-5.2-13.8-13.2-16.3-22.4c-1.2-4.1-1.7-8.3-1.5-12.5
			c0.4-11.2,5.3-21.7,13.5-29.2c5.8-5.4,13-9,20.8-10.5c4.1-0.8,8.2-1.1,12.3-0.8c6.6,0.5,12.9,2.3,18.8,5.4
			c0.5,0.2,0.9,0.5,1.2,0.9c-0.3,0-0.6-0.1-0.9-0.3c-4.1-2.1-8.4-3.6-12.8-4.6C91.2,0,86.9-0.3,82.7,0c-1.7,0.1-3.3,0.4-4.9,0.9
			c1.1-0.2,2.3-0.3,3.3-0.4c3-0.3,6-0.3,8.9,0.1c4,0.4,7.9,1.9,11.8,3.1c0.9,0.3,1.7,0.7,2.4,1.2c0.4,0.3,0.7,0.7,0.4,1.3
			s-0.8,0.5-1.2,0.4c-1.4-0.4-2.7-0.9-4-1.5c-5.4-2-11.2-2.9-16.9-2.6c-1.9,0.1-3.8,0.3-5.7,0.7C76.5,3.3,76.3,3.3,76.1,3.5z
			 M49.3,41.8c0-0.5-0.1-1.1-0.4-1.5c-0.4-0.7-1.3-1-2-0.6c-0.2,0.1-0.5,0.3-0.6,0.6c-0.6,0.9-0.6,2.1-0.1,3.1
			c0.3,0.5,0.8,0.8,1.3,0.8c0.6,0,1.2-0.3,1.4-0.9C49.2,42.8,49.3,42.3,49.3,41.8z M49.7,51.1c0.1-0.6-0.1-1.2-0.5-1.7
			C48.9,49,48.4,49,48,49.2c-0.1,0.1-0.2,0.2-0.3,0.3c-0.4,0.8-0.4,1.8,0.1,2.6c0.2,0.3,0.5,0.5,0.9,0.5c0.4,0,0.7-0.3,0.8-0.6
			C49.6,51.8,49.7,51.4,49.7,51.1L49.7,51.1z"/>
		<path class="st1" d="M110.6,13.4c-1.6-1.4-3.3-2.7-5-3.9c1.2,0.5,2.3,1.1,3.4,1.8c6.7,4.1,12.1,10,15.5,17.1
			c1.7,3.7,2.9,7.7,3.4,11.8c0,0.4,0,0.7,0,1.1c0,0.2,0,0.6-0.3,0.6s-0.2-0.4-0.3-0.6c-0.1-0.6-0.1-1.2-0.2-1.8
			c-1.5-9.9-6.8-18.9-14.7-25c-0.4-0.3-0.7-0.8-1.3-0.8l0,0c0-0.1-0.1-0.2-0.2-0.1l0,0C110.8,13.4,110.7,13.4,110.6,13.4z"/>
		<path class="st1" d="M105.7,9.5c-0.1,0-0.2,0-0.2-0.1C105.5,9.4,105.6,9.4,105.7,9.5z"/>
		<path class="st1" d="M105.4,9.4c-0.1,0-0.1,0-0.2-0.1C105.3,9.3,105.4,9.3,105.4,9.4C105.4,9.4,105.4,9.4,105.4,9.4z"/>
		<path class="st1" d="M115.2,25.3c-0.8-1-1.5-2.1-2.3-3.1c-5.3-6.7-12.9-11.3-21.4-12.8c-5.5-1-11.3-0.7-16.6,1
			c-0.3,0.1-0.6,0.2-0.8,0.5c-0.1,0.1-0.3,0.3-0.4,0.3c-1.1,0.5-2.2,0.9-3.3,1.2c0.5-0.5,1.1-0.9,1.8-1c0.6-0.2,1-0.4,1-1.2
			c0-0.4,0.3-0.5,0.6-0.6c2.3-0.5,4.6-0.9,6.9-1.2c0.7-0.1,1.3-0.2,2-0.4c0.3,0,0.5-0.2,0.7-0.5c0.1-0.1,0.2-0.2,0.3-0.2
			c1.4,0,2.8-0.4,4.3-0.4c1.8,0,3.6,0.3,5.3,0.8c6.9,1.6,13.1,5.4,17.6,10.9c1.6,1.9,2.9,4,4,6.2C115.1,24.9,115.3,25.1,115.2,25.3z
			"/>
		<path class="st1" d="M105.5,71.3c-0.1,0.1-0.2,0.2-0.4,0.3h-0.1C105.2,71.4,105.4,71.3,105.5,71.3L105.5,71.3z"/>
		<path class="st1" d="M105.5,71.3c0-0.2,0.2-0.2,0.4-0.2l0,0C105.8,71.2,105.7,71.3,105.5,71.3L105.5,71.3z"/>
		<path class="st1" d="M65.7,16c-0.1,0.2-0.2,0.3-0.4,0.3C65.3,16.1,65.5,16,65.7,16z"/>
		<path class="st2" d="M112.7,67.1c0.2,0.3-0.1,0.2-0.2,0.2C112.4,67.2,112.5,67.1,112.7,67.1z"/>
		<path class="st1" d="M64.4,17c0,0.1-0.1,0.2-0.2,0.2c0,0,0,0,0,0C64.2,17,64.3,17,64.4,17z"/>
		<path class="st1" d="M105.9,71C105.9,70.9,105.9,70.9,105.9,71L105.9,71L105.9,71L105.9,71z"/>
		<path class="st2" d="M110.8,13.6c0.2-0.1,0.2,0,0.2,0.1C110.9,13.8,110.9,13.7,110.8,13.6z"/>
		<path class="st1" d="M63.7,17.6c0,0.1-0.1,0.2-0.1,0.2c0,0,0,0-0.1,0C63.5,17.6,63.5,17.6,63.7,17.6z"/>
		<path class="st1" d="M115.4,25.5c-0.1,0-0.2-0.1-0.2-0.3C115.3,25.3,115.4,25.4,115.4,25.5z"/>
		<path class="st1" d="M65,16.5c0,0.1-0.1,0.2-0.2,0.2c0,0,0,0,0,0C64.8,16.5,64.9,16.5,65,16.5z"/>
		<path class="st2" d="M59.3,63.1l0.1,0.3C59.3,63.3,59.3,63.2,59.3,63.1z"/>
		<path class="st1" d="M70.4,12.3c0,0.1-0.1,0.1-0.2,0.1C70.2,12.4,70.3,12.3,70.4,12.3z"/>
		<path class="st2" d="M59.2,63l0.1,0.1C59.2,63.2,59.2,63.1,59.2,63z"/>
		<path class="st2" d="M59.4,63.4c0.1,0,0.1,0.1,0.1,0.1L59.4,63.4z"/>
		<path class="st2" d="M59.5,63.5c0.1,0,0.1,0,0.1,0.1c0,0,0,0,0,0L59.5,63.5z"/>
		<path class="st2" d="M59.6,63.6c0.1,0,0.1,0,0.1,0.1c0,0,0,0,0,0L59.6,63.6z"/>
		<path class="st2" d="M110.6,13.4c0.1,0,0.2,0,0.2,0.1L110.6,13.4z"/>
		<polygon class="st2" points="56.2,59.8 56.2,59.8 56.2,59.8 		"/>
		<path class="st1" d="M65.3,16.3c0,0.1-0.1,0.1-0.1,0.1S65.2,16.3,65.3,16.3z"/>
		<path class="st1" d="M65.2,16.4c0,0.1-0.1,0.1-0.1,0.1S65.1,16.4,65.2,16.4z"/>
		<path class="st1" d="M64.8,16.7c0,0.1-0.1,0.1-0.1,0.1S64.7,16.6,64.8,16.7z"/>
		<path class="st1" d="M63.8,17.5c0,0.1,0,0.1-0.1,0.1S63.7,17.5,63.8,17.5z"/>
		<path class="st1" d="M64,17.4c0,0.1,0,0.1-0.1,0.1S63.9,17.4,64,17.4z"/>
		<path class="st1" d="M64.1,17.3c0,0.1,0,0.1-0.1,0.1S64,17.2,64.1,17.3z"/>
		<path class="st1" d="M64.2,17.2c0,0.1,0,0.1-0.1,0.1C64.1,17.2,64.1,17.1,64.2,17.2z"/>
		<path class="st1" d="M64.6,16.9c0,0.1,0,0.1-0.1,0.1S64.5,16.9,64.6,16.9z"/>
		<path class="st1" d="M64.7,16.8c0,0.1-0.1,0.1-0.1,0.1S64.6,16.8,64.7,16.8z"/>
		<path class="st0" d="M46.2,33.8c-0.3-1.4-0.1-2.8,0.7-4c0.2-0.3,0.4-0.6,0.6-0.9c0.3-0.2,0.7-0.4,1.1-0.5c0.9-0.1,1.7,0.3,2.1,1.1
			c1,2,0.3,4.4-1.5,5.6c-0.9,0.5-2,0.2-2.5-0.7c0,0,0,0,0,0C46.5,34.3,46.3,34,46.2,33.8z"/>
		<path class="st0" d="M49.3,41.8c0,0.5-0.1,1-0.3,1.5c-0.3,0.6-0.9,0.9-1.5,0.9c-0.5,0-1.1-0.3-1.3-0.8c-0.5-1-0.5-2.2,0.1-3.1
			c0.4-0.7,1.3-1,2-0.6c0.2,0.1,0.5,0.3,0.6,0.6C49.2,40.7,49.3,41.3,49.3,41.8z"/>
		<path class="st0" d="M49.7,51.1c0,0.3,0,0.6-0.2,0.9c-0.1,0.3-0.4,0.6-0.8,0.6c-0.4,0-0.7-0.1-0.9-0.5c-0.5-0.8-0.5-1.8-0.1-2.6
			c0.2-0.4,0.6-0.6,1-0.4c0.1,0.1,0.3,0.1,0.3,0.3C49.6,49.9,49.7,50.5,49.7,51.1z"/>
		<path class="st2" d="M58.9,60.6c0.2,0.2,0.4,0.4,0.4,0.7c-0.3-0.1-0.5-0.3-0.6-0.5L58.9,60.6z"/>
		<path class="st0" d="M58.7,69.1c0,0-0.2-0.1-0.1-0.1S58.8,69,58.7,69.1L58.7,69.1z"/>
	</g>
</g>
<g id="BIlcxR.tif">
	<path d="M-0.3,129.2c1.7-0.1,3.4-0.1,5.1,0c1.9,0.2,3.5,1.6,3.8,3.6c0.5,1.9-0.2,4-1.8,5.1l-0.4,0.3c0.6,0.5,1.1,1,1.7,1.5
		c1.4,1.6,1.7,3.9,0.7,5.8c-0.8,2-2.8,3.2-4.9,3.2c-1.4,0-2.8,0-4.3,0L-0.3,129.2z M0.9,130.3v17.1c1.1,0,2.2,0,3.2,0
		c1.7,0,3.2-1,3.8-2.6c0.7-1.6,0.4-3.4-0.8-4.6c-0.8-0.9-1.9-1.4-3.1-1.4v-1.2l0.8-0.1c1.7-0.4,3-1.9,2.9-3.7c0-1.8-1.4-3.2-3.1-3.5
		C3.3,130.3,2.1,130.3,0.9,130.3z"/>
	<path d="M52.5,138.8l6.5,9.8c-1.2,0.2-1.3,0.2-2-0.8l-6.4-9.6c-0.1-0.2-0.2-0.4-0.4-0.6h1.3c2,0,3.7-1.6,3.7-3.7
		c0-2-1.6-3.7-3.7-3.7h-3.5v18.3h-1.2v-19.5c1.7,0,3.3,0,5,0c1.5,0,2.9,0.7,3.8,1.9c1.6,2.1,1.2,5.2-0.9,6.9
		c-0.5,0.4-1.2,0.7-1.8,0.9L52.5,138.8z"/>
	<path d="M75.2,137.7h1.4c2,0,3.7-1.7,3.7-3.7c0,0,0,0,0,0c0-2-1.7-3.6-3.7-3.6c0,0,0,0,0,0H73v18.4h-1.2v-19.6h1.5
		c1.4-0.1,2.7,0,4.1,0.1c2.3,0.3,4.1,2.2,4.2,4.6c0.1,2.4-1.5,4.5-3.8,5l-0.3,0.1l6.5,9.8c-1.2,0.3-1.3,0.2-2-0.7l-6.4-9.6
		C75.5,138.1,75.4,137.9,75.2,137.7z"/>
	<path d="M173.6,138.9c0,1.6,0,3.2,0,4.8c0,2.2-1.5,4.2-3.7,4.8c-2.6,0.7-5.3-0.9-6-3.5c-0.1-0.4-0.1-0.7-0.2-1.1c0-3.3,0-6.6,0-9.9
		c-0.1-2.7,2-5,4.7-5.1c2.7-0.1,5,2,5.1,4.7c0,0.1,0,0.3,0,0.4C173.6,135.6,173.6,137.3,173.6,138.9z M172.4,138.9
		c0-1.6,0-3.2,0-4.8c0-2-1.6-3.7-3.7-3.7c-2,0-3.7,1.6-3.7,3.7c0,3.2,0,6.4,0,9.7c0,2,1.6,3.7,3.7,3.7c2,0,3.7-1.6,3.7-3.7
		C172.4,142.1,172.4,140.5,172.4,138.9L172.4,138.9z"/>
	<path d="M96.7,129.1h9.7v1.2h-8.5v7.9h6v1.2h-6v8h8.5v1.2h-9.7V129.1z"/>
	<path d="M34.2,148.6l-0.1,0.1c-1.1,0.1-1.1,0.1-1.4-0.9l-4.4-13.8l-0.2-0.7c-0.1,0.4-0.2,0.6-0.3,0.8l-4.3,13.7
		c-0.3,1-0.3,1-1.5,0.9l6-19.4h0.1L34.2,148.6z"/>
	<path d="M151.1,129.1v1.2h-4.2v18.4h-1.2v-18.3h-4.2v-1.2L151.1,129.1z"/>
	<path d="M124.5,148.7h-1.2v-18.3H119v-1.2h9.7v1.2h-4.2L124.5,148.7z"/>
</g>
<g>
	<path d="M31.2,166.3V166h5.2c-0.1,1-0.6,1.8-1.4,2.5s-1.7,1-2.8,1c-1.2,0-2.2-0.4-3-1.2c-0.8-0.8-1.3-1.8-1.3-2.9
		c0-1.2,0.4-2.1,1.2-2.9c0.8-0.8,1.8-1.2,3-1.2c0.7,0,1.4,0.2,2.1,0.5c0.6,0.3,1.1,0.8,1.5,1.4h-0.4c-0.8-1.1-1.9-1.6-3.2-1.6
		c-1.1,0-2,0.4-2.8,1.1c-0.8,0.8-1.1,1.7-1.1,2.7c0,1,0.4,1.9,1.2,2.7c0.8,0.8,1.7,1.1,2.8,1.1c0.9,0,1.7-0.3,2.4-0.9
		s1.2-1.3,1.3-2.1H31.2z"/>
	<path d="M46.1,166.6h-4.2l-1.2,2.8h-0.3l3.4-8h0.4l3.4,8h-0.3L46.1,166.6z M44,161.7l-2,4.6H46L44,161.7z"/>
	<path d="M54.3,169.6c-0.6,0-1.2-0.2-1.6-0.6c-0.4-0.4-0.7-0.9-0.7-1.6h0.3c0.1,0.6,0.3,1,0.7,1.4c0.4,0.3,0.8,0.5,1.3,0.5
		c0.6,0,1-0.2,1.4-0.6c0.4-0.4,0.6-0.8,0.6-1.4c0-0.7-0.3-1.2-0.9-1.6c-0.2-0.1-0.6-0.3-1.1-0.4c-0.8-0.2-1.4-0.5-1.7-0.8
		c-0.3-0.3-0.4-0.7-0.4-1.2c0-0.6,0.2-1.1,0.6-1.5c0.4-0.4,0.9-0.6,1.6-0.6c0.6,0,1,0.2,1.4,0.5c0.4,0.3,0.6,0.8,0.7,1.4h-0.3
		c-0.2-1.1-0.8-1.6-1.8-1.6c-0.5,0-1,0.2-1.3,0.5c-0.3,0.3-0.5,0.7-0.5,1.2c0,0.4,0.1,0.8,0.4,1.1c0.3,0.3,0.7,0.5,1.4,0.6
		c0.7,0.2,1.2,0.4,1.5,0.6c0.6,0.4,0.9,1,0.9,1.8c0,0.6-0.2,1.2-0.7,1.6C55.5,169.4,55,169.6,54.3,169.6z"/>
	<path d="M60.9,161.7l0-0.3h4.6v0.3h-2.2v7.7h-0.3v-7.7H60.9z"/>
	<path d="M70.6,169.4v-8h1.8c1,0,1.7,0.1,2.1,0.3c0.3,0.2,0.6,0.5,0.8,0.9c0.2,0.4,0.3,0.8,0.3,1.3c0,0.7-0.2,1.3-0.7,1.8
		c-0.4,0.5-1,0.7-1.7,0.7H73l2.1,3h-0.4l-2.3-3.3h0.5c0.7,0,1.2-0.1,1.5-0.4c0.6-0.4,0.9-1.1,0.9-1.9c0-0.4-0.1-0.7-0.3-1.1
		c-0.2-0.3-0.4-0.6-0.7-0.8c-0.2-0.2-0.6-0.3-1-0.3c-0.2,0-0.5,0-1,0h-1.5v7.7H70.6z"/>
	<path d="M84.7,169.6c-1.2,0-2.1-0.4-2.9-1.2c-0.8-0.8-1.2-1.8-1.2-2.9c0-1.2,0.4-2.2,1.2-3c0.8-0.8,1.8-1.2,2.9-1.2
		c1.2,0,2.2,0.4,3,1.2s1.2,1.8,1.2,3c0,1.2-0.4,2.1-1.2,2.9C86.9,169.2,85.9,169.6,84.7,169.6z M84.7,161.6c-1.1,0-2,0.4-2.7,1.1
		c-0.7,0.7-1.1,1.7-1.1,2.7c0,1.1,0.4,2,1.1,2.8c0.7,0.7,1.7,1.1,2.7,1.1c1.1,0,2-0.4,2.7-1.1s1.1-1.7,1.1-2.7c0-1.1-0.4-2-1.1-2.7
		C86.7,161.9,85.8,161.6,84.7,161.6z"/>
	<path d="M94.2,161.4h0.5l5.5,7.6v-7.6h0.3v8h-0.4l-5.6-7.7v7.7h-0.3V161.4z"/>
	<path d="M109.9,169.6c-1.2,0-2.1-0.4-2.9-1.2c-0.8-0.8-1.2-1.8-1.2-2.9c0-1.2,0.4-2.2,1.2-3c0.8-0.8,1.8-1.2,2.9-1.2
		c1.2,0,2.2,0.4,3,1.2s1.2,1.8,1.2,3c0,1.2-0.4,2.1-1.2,2.9C112,169.2,111.1,169.6,109.9,169.6z M109.9,161.6c-1.1,0-2,0.4-2.7,1.1
		c-0.7,0.7-1.1,1.7-1.1,2.7c0,1.1,0.4,2,1.1,2.8c0.7,0.7,1.7,1.1,2.7,1.1c1.1,0,2-0.4,2.7-1.1s1.1-1.7,1.1-2.7c0-1.1-0.4-2-1.1-2.7
		C111.9,161.9,111,161.6,109.9,161.6z"/>
	<path d="M119.3,161.4h0.5l3.7,7.5l3.7-7.5h0.5v8h-0.3v-7.7l-3.8,7.7h-0.2l-3.8-7.7v7.7h-0.3V161.4z"/>
	<path d="M133.5,161.4h0.3v8h-0.3V161.4z"/>
	<path d="M144.5,166.6h-4.2l-1.2,2.8h-0.3l3.4-8h0.4l3.4,8h-0.3L144.5,166.6z M142.4,161.7l-2,4.6h3.9L142.4,161.7z"/>
</g>
</svg>
