<svg id="Camada_1" data-name="Camada 1" xmlns="http://www.w3.org/2000/svg" viewBox="0 0 433 100"><defs><style>.cls-1{fill:#820000;}.cls-2{fill:#67ae3e;}.cls-3{fill:#fefefe;}</style></defs><title>logo</title><g id="xJthWJ.tif"><path d="M359.28,74.05v8.33a5.53,5.53,0,0,1-.67-.62q-2.45-3.34-4.89-6.7a1.61,1.61,0,0,0-.54-.51v7.59H353V73.84a5.25,5.25,0,0,1,.71.64c1.6,2.17,3.18,4.36,4.77,6.54a1.78,1.78,0,0,0,.59.55V74Z"/><path d="M347.7,78.14a4.26,4.26,0,0,1-8.52,0,4.26,4.26,0,1,1,8.52,0Zm-4.2,3.94a3.91,3.91,0,0,0,3.91-4,4,4,0,1,0-3.91,4Z"/><path d="M409.42,82.17V78.28h-4.69v3.87h-.2V74.06h.14v3.84h4.75V74h.18v8.12Z"/><path d="M364.25,82.15c.06-.18.1-.36.18-.54q1.51-3.53,3-7a3.06,3.06,0,0,1,.41-.56,3,3,0,0,1,.46.59c1,2.32,2,4.66,3,7a1,1,0,0,1,.08.64,1.66,1.66,0,0,1-.27-.33c-.31-.67-.62-1.35-.88-2a.66.66,0,0,0-.74-.5c-1.1,0-2.2,0-3.3,0a.63.63,0,0,0-.7.47c-.25.65-.54,1.28-.82,1.92-.08.17-.17.33-.26.5Zm3.64-7.88-2,4.78h4Z"/><path d="M314.53,82.16h-4.39V74h4.36v.18h-4.08V78h4.08v.2h-4.07v3.78h4.08Z"/><path d="M319.93,82.15V73.93c1.19.07,2.35.07,3.5.24a2.31,2.31,0,0,1,1.68,2.52,2.44,2.44,0,0,1-2,2.39l-.74.07,2.11,3c-.45,0-1.78-1.71-2.61-3.24.35,0,.67,0,1-.06a2.27,2.27,0,0,0,0-4.48c-.69-.07-1.39,0-2.09-.07-.51,0-.65.15-.65.65,0,2.18,0,4.36,0,6.54,0,.23,0,.47,0,.7Z"/><path d="M399.17,75.81c-2.16-2.06-4.38-2.52-6.54-.16a3.7,3.7,0,0,0,0,4.9c2.13,2.36,4.37,2,6.58-.22-.49,1.37-2.34,2.21-4.08,2a4.29,4.29,0,0,1-3.64-3.78,4.23,4.23,0,0,1,2.93-4.47A4,4,0,0,1,399.17,75.81Z"/><path d="M334.07,75.87l-.27-.62a1.76,1.76,0,0,0-2.27-1,1.65,1.65,0,0,0-1.25,2,2.13,2.13,0,0,0,.9,1.14,8.93,8.93,0,0,0,1.71.59,2.09,2.09,0,0,1,1.56,2.48,2.27,2.27,0,0,1-2.05,1.91,2.3,2.3,0,0,1-2.55-1.63,4.72,4.72,0,0,1-.1-.5l.17-.07c.09.19.19.36.26.56a2.06,2.06,0,0,0,3.21,1,1.87,1.87,0,0,0,.8-1.82,1.71,1.71,0,0,0-1.18-1.5c-.59-.22-1.21-.35-1.79-.59A1.84,1.84,0,0,1,330,75.46a2.19,2.19,0,0,1,2.21-1.62,2,2,0,0,1,2,1.74S334.18,75.66,334.07,75.87Z"/><path d="M419.68,78.22h-4V82h4.06v.18h-4.34V74.06h4.33v.16c-.25,0-.49,0-.74,0-.92,0-1.84,0-2.77,0-.48,0-.63.16-.61.62,0,.83,0,1.66,0,2.5,0,.44.13.6.58.58,1,0,1.93,0,2.9,0,.21,0,.42,0,.63,0Z"/><path d="M300.37,74c1,0,2,0,2.94.15A2.11,2.11,0,0,1,305,76.4a2,2,0,0,1-1.8,2.15c-.86.1-1.73.11-2.7.17v3.44h-.18Zm.23,4.49c1-.06,1.83-.06,2.69-.19a1.77,1.77,0,0,0,1.46-1.71c.07-.9-.36-1.88-1.11-2a25.8,25.8,0,0,0-3-.31Z"/><path d="M425.17,82.15V74H429v.17h-3.55V78H429v.23h-3.62v4Z"/><path d="M376.68,74V82h3.47v.18H376.5V74.05Z"/><g id="BIlcxR.tif"><path d="M241.55,39.92a48.11,48.11,0,0,1,5.51,0,4.72,4.72,0,0,1,4.14,3.82,5,5,0,0,1-1.95,5.5l-.39.3a16.7,16.7,0,0,1,1.79,1.66,5.57,5.57,0,0,1,.79,6.24,5.64,5.64,0,0,1-5.3,3.41c-1.51,0-3,0-4.59,0Zm1.27,1.25V59.6c1.18,0,2.31,0,3.44,0a4.34,4.34,0,0,0,4.09-2.81,4.44,4.44,0,0,0-.86-5,4.75,4.75,0,0,0-3.35-1.51V49.1l.82-.15a4,4,0,0,0,3.12-4,3.86,3.86,0,0,0-3.35-3.74A36.47,36.47,0,0,0,242.82,41.17Z"/><path d="M298.37,50.29l7,10.52c-1.34.26-1.42.23-2.11-.81l-6.84-10.27c-.12-.18-.23-.37-.43-.69h1.44a4,4,0,1,0,0-7.91h-3.84V60.85h-1.29v-21c1.8,0,3.58,0,5.35,0a5,5,0,0,1,4.07,2.06,5.25,5.25,0,0,1-2.94,8.31Z"/><path d="M322.75,49h1.54a4,4,0,0,0,4-4,3.94,3.94,0,0,0-4-3.91h-3.95V60.86h-1.28v-21h1.59a37.93,37.93,0,0,1,4.4.07,5.1,5.1,0,0,1,4.5,4.93,5.21,5.21,0,0,1-4.06,5.38l-.37.08,7,10.51c-1.29.28-1.42.22-2.1-.79l-6.83-10.27C323.06,49.55,322.94,49.34,322.75,49Z"/><path d="M428.53,50.39c0,1.73,0,3.47,0,5.2a5.32,5.32,0,0,1-3.94,5.16,5.25,5.25,0,0,1-6.56-5c0-3.56,0-7.11,0-10.67a5.26,5.26,0,1,1,10.53,0C428.54,46.88,428.53,48.64,428.53,50.39Zm-1.31,0c0-1.73,0-3.47,0-5.2a4,4,0,1,0-7.92,0q0,5.2,0,10.4a4,4,0,1,0,7.92,0C427.23,53.81,427.22,52.08,427.22,50.35Z"/><path d="M345.82,39.85h10.43v1.27H347.1v8.54h6.49V51H347.1v8.59h9.15v1.27H345.82Z"/><path d="M278.71,60.82l-.14.07c-1.16.07-1.16.07-1.5-1L272.39,45l-.24-.73c-.14.4-.24.65-.32.9l-4.59,14.69c-.34,1.1-.34,1.1-1.66,1l6.49-20.81h.13Z"/><path d="M404.4,39.86v1.26h-4.55V60.87h-1.31V41.15H394V39.86Z"/><path d="M375.76,60.88h-1.27V41.16h-4.62V39.87h10.45v1.25h-4.56Z"/><g id="UGRdFw.tif"><path d="M89.48,60.7a1.77,1.77,0,0,1-2.15-.79c-2.23-3.49-4.57-6.91-6.86-10.36-.13-.2-.26-.41-.45-.73h1.61a4,4,0,0,0,3.93-4,3.93,3.93,0,0,0-3.91-3.95c-1.32,0-2.64,0-4,0V60.72h-1.3V39.57c2,0,4-.15,6,0a5.17,5.17,0,0,1,4.57,4.73A5.29,5.29,0,0,1,83,49.93l-.6.16Z"/><path d="M113.78,50.14c0,1.77,0,3.54,0,5.3a5.28,5.28,0,0,1-4.84,5.31A5.37,5.37,0,0,1,103.19,56a2.68,2.68,0,0,1,0-.34c0-3.63,0-7.25,0-10.88a5.3,5.3,0,0,1,10.59-.16c0,.07,0,.13,0,.2Q113.78,47.49,113.78,50.14Zm-1.31,0h0q0-2.55,0-5.1s0-.09,0-.13a4,4,0,1,0-8,0q0,5.2,0,10.41a4.56,4.56,0,0,0,.24,1.44,4,4,0,0,0,7.73-1.19C112.51,53.78,112.47,52,112.47,50.15Z"/><path d="M52.07,60.79V39.55A10.6,10.6,0,0,1,61.45,55,10.29,10.29,0,0,1,52.07,60.79ZM53.39,41V59.31a9.17,9.17,0,0,0,7.92-9.59C61.11,45.25,57,40.8,53.39,41Z"/><path d="M38.33,39.58v1.26H29.11v8.62h6.54v1.32H29.12v8.64h9.19v1.3H27.81V39.58Z"/><path d="M6.8,50.2V48.82H8.67a4,4,0,1,0,0-8H4.78V60.73H3.53V39.67a59.55,59.55,0,0,1,6.44,0c2.37.26,4.14,2.7,4.11,5.17A5.23,5.23,0,0,1,9.94,50,29.87,29.87,0,0,1,6.8,50.2Z"/><g id="D7awSu.tif"><path class="cls-1" d="M207.83,20.5c0,.3.25.38.4.53a60.47,60.47,0,0,1,7.72,9.1,22.45,22.45,0,0,1,3.06,7,67.16,67.16,0,0,1,2.25,9.55,12,12,0,0,1,0,2.9,10.14,10.14,0,0,0,.07,2.7,8.36,8.36,0,0,1-.76,4.69,1.32,1.32,0,0,0,.11,1.53.79.79,0,0,1,0,1,31.65,31.65,0,0,1-2.53,3.94,12.41,12.41,0,0,0-1.61,3c-.88,2.48-2.52,4.51-4,6.63-1.08,1.54-2,3.17-3,4.76h0c-.16,0-.21.13-.23.27a3.41,3.41,0,0,1-1,1.25,54.42,54.42,0,0,1-4.72,4.71,33.54,33.54,0,0,1-12,5.82,37.4,37.4,0,0,1-8.2,1.23,42.9,42.9,0,0,1-13.06-.92,46.12,46.12,0,0,1-15.46-7.39A13,13,0,0,1,151.59,80l.07-.08c.6.2,1.21.4,1.81.62a1.29,1.29,0,0,1,.85.68,1.93,1.93,0,0,0,1,1c.6.33,1.19.67,1.81.94,2.35,1,4.48,2.51,6.89,3.47a32.3,32.3,0,0,0,7.79,2.38c2.45.31,4.89.55,7.36.63a34.56,34.56,0,0,0,7.94-.56,37.91,37.91,0,0,0,10.08-3.85,31,31,0,0,0,4.33-2.64.51.51,0,0,0,.39-.28.49.49,0,0,0,.39-.27l.15-.06s0,0,0,0-.11,0-.09.11c-.2,0-.38,0-.4.26a.37.37,0,0,0-.44.22,1.51,1.51,0,0,0-.65.31,37.23,37.23,0,0,1-5.18,2.62,39.25,39.25,0,0,1-17.21,3,40.92,40.92,0,0,1-8.71-1.39A43.11,43.11,0,0,1,156.89,81a29.75,29.75,0,0,1-11-13.31,50.91,50.91,0,0,1-2.08-6.07c.46.4.48,1.07.93,1.46,1.06,2.33,2.51,4.45,3.77,6.66.09.16.3.15.34.34l0,0h0c-.17-.35-.33-.7-.5-1.05-1.15-2.27-2.29-4.54-3.21-6.92a31.87,31.87,0,0,1-2.34-12.53c.13-1.27.22-2.54.39-3.79a26.93,26.93,0,0,1,2.57-8.62,2.67,2.67,0,0,1,.78-1.12,26.27,26.27,0,0,1-.57,3,40.1,40.1,0,0,0-1.54,5.93,34.09,34.09,0,0,0-.14,11.36,36.08,36.08,0,0,0,6.78,16.08,3.44,3.44,0,0,0,1,1.14c0,.07,0,.14.14.12h0a.3.3,0,0,0,.14.28h0l.14.15h0l.14.14h0l.14.14h0a29.87,29.87,0,0,0,6.74,6,35.47,35.47,0,0,0,24.86,5.92,34.44,34.44,0,0,0,14.53-5.41,36.49,36.49,0,0,0,11.56-12.32,38.07,38.07,0,0,0,5-26.15,30.16,30.16,0,0,0-2.91-9.13.23.23,0,0,0-.16-.28h0c0-.22-.1-.38-.19-.55a32.41,32.41,0,0,0-4.39-6.66A35.4,35.4,0,0,0,188.87,14a23,23,0,0,0-5.73-.81c-1.54,0-3.06.38-4.6.4a.36.36,0,0,0-.36.23,1,1,0,0,1-.74.5,12.88,12.88,0,0,1-2.2.43,74.93,74.93,0,0,0-7.4,1.31c-.38.09-.69.21-.69.65,0,.76-.47,1-1.13,1.24a3.81,3.81,0,0,0-1.93,1h0a.15.15,0,0,0-.18.11c-1.68,1.2-3.3,2.47-4.86,3.82a.4.4,0,0,0-.39.31h0c-.09,0-.15,0-.15.12h0c-.09,0-.14,0-.14.12h0c-.14,0-.23,0-.24.17l0,0,0,0c-.1,0-.15,0-.15.12h0c-.09,0-.15,0-.14.13h0c-.09,0-.14,0-.14.13h0c-.14,0-.23,0-.24.17l0,0,0,0c-.1,0-.15,0-.15.12h0c-.09,0-.15,0-.14.13h0c-.09,0-.15,0-.14.13h0c-.1,0-.15,0-.14.13h0c-.15,0-.24,0-.23.18h0c-.28-.11-.39.14-.55.26a37.06,37.06,0,0,0-5.34,5.18c-.36.44-.37.43-.67,0l-.43.49c-.13-.73-.42-.52-.72-.18s-.44.56-.69.88c-.21-.38,0-.94-.35-1s-.56.43-.8.71A19.85,19.85,0,0,0,145,34.43c-.35.61-.83.62-1.2,0a4.23,4.23,0,0,1-.49-1.14,4.11,4.11,0,0,0-1.5-2.26.88.88,0,0,1,0-.8c.28-.85.76-1.68.43-2.64a4,4,0,0,0,.63-1.15,22.63,22.63,0,0,1,8.3-9.86,3,3,0,0,1,.51-.3c.26-.11.49-.1.5.27,0,.53.26.34.49.18l1.34-1c.1-.07.27-.24.32-.14.33.66.55,0,.68-.1a19.14,19.14,0,0,1,6.32-3.86c2.88-1.2,6-1.52,9-2.22a9.35,9.35,0,0,0,2.81-.28,37.7,37.7,0,0,1,18.11,1.53c1.57.49,3.15,1,4.73,1.44a4.91,4.91,0,0,1,1.58.8,44.42,44.42,0,0,0,4.1,2.77.14.14,0,0,0,.16.1h0A.22.22,0,0,0,202,16h0a60.11,60.11,0,0,1,5.35,4.24l.21.14h0c.05.11.08.28.27.15Z"/><path class="cls-2" d="M170.3,9.47c-3,.69-6.08,1-9,2.22A19.14,19.14,0,0,0,155,15.54c-.12.12-.35.75-.68.1,0-.1-.22.07-.32.14l-1.34,1c-.23.16-.49.35-.49-.18,0-.37-.24-.38-.5-.27a3,3,0,0,0-.51.3,22.63,22.63,0,0,0-8.3,9.86,4,4,0,0,1-.63,1.15A33.7,33.7,0,0,0,139,33.78c0,.06-.07.13-.06.18a4.29,4.29,0,0,1-.5,2.4A43.82,43.82,0,0,0,136.84,58a37.86,37.86,0,0,0,2.72,9.07c3.23,7.16,8.51,12.61,14.63,17.34.29.23.65.42.93.06s0-.68-.29-.93a53,53,0,0,1-8.32-7.71,26.49,26.49,0,0,1-5.09-8,65.34,65.34,0,0,1-3.14-11.71,33.78,33.78,0,0,1-.81-9.9,23.37,23.37,0,0,1,.65-4.15c.14.24.28.49.44.72a2,2,0,0,0,2.74.77,4.83,4.83,0,0,0,1.59-6.06,2.29,2.29,0,0,0-2.25-1.19,5,5,0,0,0-1.18.56A28.42,28.42,0,0,1,141.85,31a4.11,4.11,0,0,1,1.5,2.26,4.23,4.23,0,0,0,.49,1.14c.37.6.85.58,1.2,0a19.85,19.85,0,0,1,2.13-3.24c.24-.28.46-.76.8-.71s.14.61.35,1c.25-.32.46-.61.69-.88s.59-.55.72.18l.43-.49c.3.48.31.49.67,0a37.06,37.06,0,0,1,5.34-5.18c.15-.13.27-.37.55-.26,0,.24-.26.34-.42.49a33.25,33.25,0,0,0-3.51,3.77,45.67,45.67,0,0,0-7.88,15.55,8,8,0,0,0-.38,1.53A34.21,34.21,0,0,0,147.78,65a26.65,26.65,0,0,0,3.37,5.42,1.7,1.7,0,0,0,.45.6,1,1,0,0,0,.6.58,1.21,1.21,0,0,0-.46-.72,1.64,1.64,0,0,0-.46-.6l-.37-.54a30.77,30.77,0,0,1-3.55-6.39A32,32,0,0,1,145.08,52a31,31,0,0,1,.24-4.68c.11-.87.51-1.36,1-1.24.74.19.59.84.59,1.37,0,.7-.12,1.4-.15,2.11a31.39,31.39,0,0,0,1.95,12.83,25.62,25.62,0,0,0,10.17,12.89,2.39,2.39,0,0,1,1,1,.59.59,0,0,1-.09.68.57.57,0,0,1-.66.16,3.74,3.74,0,0,1-.58-.3,27.25,27.25,0,0,1-5.78-4.8c-.15-.16-.26-.39-.53-.42,0,.26.11.36.22.49a32.52,32.52,0,0,0,13.65,9.45A30.67,30.67,0,0,0,178,83.42c.33,0,.7-.08,1,.2-.07.21-.22.19-.34.2a29.43,29.43,0,0,1-7.64-.17,32.3,32.3,0,0,1-15.86-7.19,30.61,30.61,0,0,0-2.47-2.15h0a.12.12,0,0,0-.14-.14h0a.13.13,0,0,0-.14-.14h0a.15.15,0,0,0-.14-.15h0l-.14-.28h0l-.14-.12a3.44,3.44,0,0,1-1-1.14,36.08,36.08,0,0,1-6.78-16.08,34.09,34.09,0,0,1,.14-11.36A40.1,40.1,0,0,1,146,39a26.27,26.27,0,0,0,.57-3,2.67,2.67,0,0,0-.78,1.12,26.93,26.93,0,0,0-2.57,8.62c-.17,1.26-.27,2.53-.39,3.79,0-.2,0-.39,0-.59a33.6,33.6,0,0,1,1-7.7c.27-1.06.58-2.1.89-3.24a.87.87,0,0,0-.38.54A35.56,35.56,0,0,0,142,46.43a8,8,0,0,0-.28,2.68,17.39,17.39,0,0,1,.26,2.62,29.89,29.89,0,0,0,.62,5c0,.21,0,.48.35.53.22,0,.29.31.35.53l1.45,5.34c-.45-.4-.47-1.07-.93-1.46a50.91,50.91,0,0,0,2.08,6.07,29.75,29.75,0,0,0,11,13.31,43.11,43.11,0,0,0,12.83,6.08,40.92,40.92,0,0,0,8.71,1.39,39.25,39.25,0,0,0,17.21-3,37.23,37.23,0,0,0,5.18-2.62,1.51,1.51,0,0,1,.65-.31l.06,0a31,31,0,0,1-4.33,2.64,37.91,37.91,0,0,1-10.08,3.85,34.56,34.56,0,0,1-7.94.56c-2.47-.07-4.91-.31-7.36-.63A32.3,32.3,0,0,1,164,86.68c-2.41-1-4.54-2.43-6.89-3.47-.62-.28-1.21-.62-1.81-.94a1.93,1.93,0,0,1-1-1,1.29,1.29,0,0,0-.85-.68c-.6-.22-1.2-.41-1.81-.62,0-.07-.13-.13-.18-.06s.06.1.11.15a13,13,0,0,0,3.24,2.78,46.12,46.12,0,0,0,15.46,7.39,42.9,42.9,0,0,0,13.06.92,37.4,37.4,0,0,0,8.2-1.23,33.54,33.54,0,0,0,12-5.82,54.42,54.42,0,0,0,4.72-4.71,3.41,3.41,0,0,0,1-1.25c.15,0,.39,0,.23-.27h0c.25.26.34-.06.44-.16a48.66,48.66,0,0,0,6.34-8.6c.19-.32.23-.72.53-1,.08-.07.15-.18.28-.14s.14.23.11.33a8.08,8.08,0,0,1-.43,1.31c-6,12.51-15.87,20.18-29.5,22.91a41.7,41.7,0,0,1-15.5,0,7,7,0,0,0-2-.06,2.77,2.77,0,0,0,1.43.51,58.63,58.63,0,0,0,11.59.67,48.74,48.74,0,0,0,15.71-2.88,29.69,29.69,0,0,0,8.67-5.22,45.24,45.24,0,0,0,13.52-18.14,20.83,20.83,0,0,0,1-4.63,36.72,36.72,0,0,0,.4-8.89c0-.59-.13-1.18-.21-1.77a2.17,2.17,0,0,1,.08-1.26,13.31,13.31,0,0,1,.49,3.15,33.77,33.77,0,0,1-1.83,14.37,36.82,36.82,0,0,1-6.08,10.08A43.62,43.62,0,0,1,202.8,89a41,41,0,0,1-14.33,5.13,45,45,0,0,1-10.93.41h-.3c.28.25.6.48.43.85a.88.88,0,0,1-1,.44,36.17,36.17,0,0,1-5-.85,69,69,0,0,1-12.44-4.14c-.56-.24-1.14-.46-1.7-.72a2.79,2.79,0,0,1-.64-.46.68.68,0,0,1-.21-.83c.13-.29.4-.3.68-.27.12,0,.25.08.39-.05a8.84,8.84,0,0,0-3.1-1.51,6.48,6.48,0,0,1-1.51-.77,41.68,41.68,0,0,1-17.53-24.09,41.52,41.52,0,0,1-1.56-13.46,44.34,44.34,0,0,1,14.53-31.41A45.55,45.55,0,0,1,171,6a48.07,48.07,0,0,1,13.28-.8,52.14,52.14,0,0,1,20.16,5.79,3.81,3.81,0,0,1,1.33,1,1.79,1.79,0,0,1-1-.31,59.1,59.1,0,0,0-13.81-5,50.29,50.29,0,0,0-13.73-.93,22,22,0,0,0-5.29,1c1.2-.15,2.39-.32,3.59-.44a44.73,44.73,0,0,1,9.56.11c4.39.48,8.51,2,12.67,3.34A7.76,7.76,0,0,1,200.41,11c.45.37.73.77.42,1.36s-.8.56-1.31.44a39.49,39.49,0,0,1-4.33-1.61A45.42,45.42,0,0,0,177,8.45a37,37,0,0,0-6.08.79C170.73,9.29,170.47,9.26,170.3,9.47ZM141.47,50.69A2.7,2.7,0,0,0,141,49a1.58,1.58,0,0,0-2.77,0,3.18,3.18,0,0,0-.07,3.33,1.52,1.52,0,0,0,1.4.83,1.62,1.62,0,0,0,1.6-.95A3.18,3.18,0,0,0,141.47,50.69Zm.39,10a2.64,2.64,0,0,0-.56-1.87.85.85,0,0,0-1.47.19,3,3,0,0,0,.09,2.84.89.89,0,0,0,.93.51,1,1,0,0,0,.84-.66A2.24,2.24,0,0,0,141.87,60.72Z"/><path class="cls-2" d="M207.38,20.2A60.11,60.11,0,0,0,202,16a20,20,0,0,1,3.65,2,43.35,43.35,0,0,1,16.63,18.43A40.75,40.75,0,0,1,225.93,49a5.55,5.55,0,0,1,0,1.19c0,.26,0,.69-.34.68s-.25-.41-.29-.67c-.09-.63-.15-1.27-.26-1.9A42.09,42.09,0,0,0,209.22,21.4c-.43-.34-.79-.82-1.39-.9l0,0c0-.16-.09-.26-.27-.15h0C207.6,20.18,207.5,20.18,207.38,20.2Z"/><path class="cls-2" d="M202,16a.22.22,0,0,1-.27-.15C201.9,15.81,202,15.83,202,16Z"/><path class="cls-2" d="M201.79,15.82a.14.14,0,0,1-.16-.1A.13.13,0,0,1,201.79,15.82Z"/><path class="cls-2" d="M212.32,32.92c-.83-1.11-1.63-2.24-2.5-3.31a37.93,37.93,0,0,0-23-13.8,36.91,36.91,0,0,0-17.88,1.06,1.26,1.26,0,0,0-.81.5,1.1,1.1,0,0,1-.47.36,23.39,23.39,0,0,1-3.58,1.3A3.81,3.81,0,0,1,166,18c.66-.2,1.12-.48,1.13-1.24,0-.44.31-.56.69-.65a74.93,74.93,0,0,1,7.4-1.31,12.88,12.88,0,0,0,2.2-.43,1,1,0,0,0,.74-.5.36.36,0,0,1,.36-.23c1.54,0,3.06-.38,4.6-.4a23,23,0,0,1,5.73.81,35.4,35.4,0,0,1,18.88,11.69,32.41,32.41,0,0,1,4.39,6.66C212.22,32.55,212.36,32.71,212.32,32.92Z"/><path class="cls-2" d="M201.9,82.37a.51.51,0,0,1-.39.28l-.05,0a.37.37,0,0,1,.44-.23Z"/><path class="cls-2" d="M201.9,82.37c0-.26.2-.27.4-.26h0a.49.49,0,0,1-.39.27Z"/><path class="cls-2" d="M159.05,23c-.08.17-.18.31-.39.31A.4.4,0,0,1,159.05,23Z"/><path class="cls-3" d="M209.56,77.86c.16.3-.07.24-.23.27C209.35,78,209.39,77.88,209.56,77.86Z"/><path class="cls-2" d="M157.72,24a.19.19,0,0,1-.24.17C157.49,24,157.58,24,157.72,24Z"/><path class="cls-2" d="M202.3,82.11c0-.07,0-.11.09-.11s0,0,0,0l-.15.06Z"/><path class="cls-3" d="M207.58,20.34c.18-.12.24,0,.27.15C207.66,20.62,207.64,20.45,207.58,20.34Z"/><path class="cls-2" d="M156.92,24.69a.18.18,0,0,1-.23.18C156.68,24.69,156.78,24.65,156.92,24.69Z"/><path class="cls-2" d="M212.48,33.2a.26.26,0,0,1-.16-.28A.23.23,0,0,1,212.48,33.2Z"/><path class="cls-2" d="M158.38,23.5a.19.19,0,0,1-.24.17C158.16,23.52,158.25,23.48,158.38,23.5Z"/><path class="cls-3" d="M152.16,73.63l.14.28A.3.3,0,0,1,152.16,73.63Z"/><path class="cls-2" d="M164.09,19c0,.1-.09.11-.18.11A.15.15,0,0,1,164.09,19Z"/><path class="cls-3" d="M152,73.52l.14.12C152.08,73.66,152.06,73.6,152,73.52Z"/><path class="cls-3" d="M152.29,73.9a.15.15,0,0,1,.14.15Z"/><path class="cls-3" d="M152.43,74a.13.13,0,0,1,.14.14Z"/><path class="cls-3" d="M152.56,74.17a.12.12,0,0,1,.14.14Z"/><path class="cls-3" d="M207.38,20.2c.12,0,.22,0,.21.14Z"/><polygon class="cls-3" points="148.85 70.09 148.88 70.07 148.86 70.1 148.85 70.09"/><path class="cls-2" d="M158.67,23.26c0,.1-.06.13-.15.12S158.58,23.25,158.67,23.26Z"/><path class="cls-2" d="M158.52,23.38c0,.1-.05.13-.14.12S158.43,23.37,158.52,23.38Z"/><path class="cls-2" d="M158.15,23.67c0,.1-.06.13-.15.12S158.05,23.65,158.15,23.67Z"/><path class="cls-2" d="M157.06,24.56c0,.1,0,.14-.14.13S157,24.55,157.06,24.56Z"/><path class="cls-2" d="M157.2,24.44c0,.1,0,.14-.14.13S157.11,24.43,157.2,24.44Z"/><path class="cls-2" d="M157.34,24.31c0,.1-.05.14-.14.13S157.25,24.3,157.34,24.31Z"/><path class="cls-2" d="M157.49,24.2q0,.15-.15.12C157.34,24.21,157.39,24.18,157.49,24.2Z"/><path class="cls-2" d="M157.86,23.9c0,.1-.05.13-.14.13S157.77,23.9,157.86,23.9Z"/><path class="cls-2" d="M158,23.78c0,.1-.06.13-.14.13S157.91,23.77,158,23.78Z"/><path class="cls-1" d="M138.13,42.11a5.83,5.83,0,0,1,.71-4.29c.19-.31.42-.61.63-.91a5,5,0,0,1,1.18-.56,2.29,2.29,0,0,1,2.25,1.19,4.83,4.83,0,0,1-1.59,6.06,2,2,0,0,1-2.74-.77C138.42,42.6,138.28,42.35,138.13,42.11Z"/><path class="cls-1" d="M141.47,50.69a3.18,3.18,0,0,1-.29,1.56,1.62,1.62,0,0,1-1.6.95,1.52,1.52,0,0,1-1.4-.83,3.18,3.18,0,0,1,.07-3.33A1.58,1.58,0,0,1,141,49,2.7,2.7,0,0,1,141.47,50.69Z"/><path class="cls-1" d="M141.87,60.72a2.24,2.24,0,0,1-.18,1,1,1,0,0,1-.84.66.89.89,0,0,1-.93-.51,3,3,0,0,1-.09-2.84.85.85,0,0,1,1.47-.19A2.64,2.64,0,0,1,141.87,60.72Z"/><path class="cls-3" d="M151.74,70.89a1.21,1.21,0,0,1,.46.72,1,1,0,0,1-.6-.58Z"/><path class="cls-1" d="M151.59,80c-.05,0-.18-.06-.11-.15s.14,0,.18.06Z"/></g></g></g></g></svg>