<svg id="Camada_1" data-name="Camada 1" xmlns="http://www.w3.org/2000/svg" viewBox="0 0 174 170"><defs><style>.cls-1{fill:#6b0905;}.cls-2{fill:#80ac4b;}.cls-3{fill:#fefefe;}</style></defs><title>brand1</title><g id="xJthWJ.tif"><path d="M78.57,161.65v7.75a5.15,5.15,0,0,1-.63-.58q-2.28-3.11-4.55-6.23a1.49,1.49,0,0,0-.5-.47v7.06H72.7v-7.73a4.88,4.88,0,0,1,.66.6c1.48,2,3,4.05,4.43,6.08a1.66,1.66,0,0,0,.55.52v-7Z"/><path d="M67.8,165.46a4,4,0,0,1-7.93,0,4,4,0,1,1,7.93,0Zm-3.91,3.67a3.63,3.63,0,0,0,3.64-3.74,3.69,3.69,0,1,0-3.64,3.74Z"/><path d="M125.2,169.21v-3.61h-4.36v3.6h-.19v-7.52h.13v3.58h4.42v-3.59h.17v7.55Z"/><path d="M83.18,169.18c.05-.17.1-.34.17-.5q1.4-3.28,2.82-6.56a2.85,2.85,0,0,1,.38-.52,2.74,2.74,0,0,1,.43.55c.94,2.16,1.87,4.33,2.8,6.5a.91.91,0,0,1,.08.59,1.55,1.55,0,0,1-.25-.31c-.28-.63-.57-1.25-.82-1.9a.62.62,0,0,0-.69-.47c-1,0-2,0-3.07,0a.59.59,0,0,0-.65.43c-.24.6-.51,1.19-.77,1.78-.07.16-.16.31-.24.46Zm3.39-7.33-1.87,4.45h3.74Z"/><path d="M36.94,169.19H32.86v-7.55h4.06v.16h-3.8v3.5h3.79v.19H33.14V169h3.8Z"/><path d="M42,169.19v-7.65c1.1.07,2.19.07,3.25.22a2.15,2.15,0,0,1,1.57,2.35,2.27,2.27,0,0,1-1.85,2.22l-.69.07,2,2.76c-.42,0-1.66-1.59-2.43-3,.32,0,.63,0,.92-.06a2.11,2.11,0,0,0,0-4.17c-.64-.06-1.3,0-1.94-.07-.47,0-.61.14-.6.61,0,2,0,4.06,0,6.08,0,.22,0,.44,0,.65Z"/><path d="M115.67,163.29c-2-1.92-4.07-2.35-6.08-.15a3.44,3.44,0,0,0,0,4.56c2,2.19,4.06,1.82,6.12-.21-.45,1.28-2.17,2.06-3.79,1.85a4,4,0,0,1-3.38-3.52,3.93,3.93,0,0,1,2.73-4.16A3.71,3.71,0,0,1,115.67,163.29Z"/><path d="M55.12,163.34l-.25-.58a1.64,1.64,0,0,0-2.11-1,1.54,1.54,0,0,0-1.16,1.87,2,2,0,0,0,.84,1.06,8.31,8.31,0,0,0,1.59.55,2,2,0,0,1,1.45,2.31,2.11,2.11,0,0,1-1.91,1.78,2.14,2.14,0,0,1-2.37-1.51,4.39,4.39,0,0,1-.09-.46l.15-.06c.08.17.18.34.24.52a1.92,1.92,0,0,0,3,.92,1.74,1.74,0,0,0,.74-1.69,1.59,1.59,0,0,0-1.1-1.4c-.55-.2-1.12-.33-1.66-.55A1.72,1.72,0,0,1,51.33,163a2,2,0,0,1,2.06-1.5,1.87,1.87,0,0,1,1.87,1.62S55.22,163.15,55.12,163.34Z"/><path d="M134.74,165.54H131V169h3.78v.17h-4v-7.52h4v.15c-.23,0-.46,0-.69,0-.86,0-1.72,0-2.57,0-.45,0-.58.15-.57.58,0,.77,0,1.55,0,2.32,0,.41.12.55.54.54.9,0,1.8,0,2.7,0,.19,0,.39,0,.58,0Z"/><path d="M23.78,161.57c.92,0,1.84,0,2.74.14a2,2,0,0,1,1.61,2.14,1.89,1.89,0,0,1-1.67,2c-.8.1-1.61.1-2.51.16v3.2h-.16Zm.22,4.17c.89-.06,1.7-.06,2.5-.18A1.65,1.65,0,0,0,27.85,164c.07-.83-.33-1.75-1-1.9a24,24,0,0,0-2.83-.29Z"/><path d="M139.85,169.19v-7.55h3.55v.15h-3.3v3.5h3.3v.21H140v3.69Z"/><path d="M94.75,161.65V169H98v.17H94.58v-7.52Z"/></g><path d="M115.31,116.24a1.65,1.65,0,0,1-2-.74c-2.08-3.24-4.25-6.43-6.38-9.64-.12-.19-.24-.38-.42-.68H108a3.7,3.7,0,0,0,3.65-3.74A3.66,3.66,0,0,0,108,97.78c-1.23,0-2.45,0-3.75,0v18.48h-1.21V96.59c1.87,0,3.73-.14,5.56,0a4.81,4.81,0,0,1,4.25,4.4,4.92,4.92,0,0,1-3.59,5.21l-.56.15Z"/><path d="M137.91,106.42c0,1.64,0,3.29,0,4.93a4.91,4.91,0,0,1-4.5,4.94,5,5,0,0,1-5.35-4.42,2.49,2.49,0,0,1,0-.31c0-3.37,0-6.75,0-10.12a4.93,4.93,0,0,1,9.85-.15c0,.06,0,.12,0,.19Q137.91,103.95,137.91,106.42Zm-1.22,0h0q0-2.37,0-4.75s0-.08,0-.12a3.72,3.72,0,1,0-7.43,0q0,4.84,0,9.68a4.24,4.24,0,0,0,.22,1.34,3.69,3.69,0,0,0,7.19-1.11C136.72,109.8,136.69,108.12,136.69,106.43Z"/><path d="M80.5,116.32V96.56a9.86,9.86,0,0,1,8.73,14.35A9.57,9.57,0,0,1,80.5,116.32Zm1.23-18.37v17A8.53,8.53,0,0,0,89.1,106C88.91,101.86,85.1,97.72,81.74,97.95Z"/><path d="M67.73,96.59v1.17H59.15v8h6.08V107H59.16v8h8.55v1.21H57.94V96.59Z"/><path d="M38.4,106.47v-1.28h1.74a3.71,3.71,0,1,0,0-7.41H36.52v18.49H35.36V96.68a55.39,55.39,0,0,1,6,0,4.72,4.72,0,0,1,3.82,4.81,4.87,4.87,0,0,1-3.85,4.75A27.78,27.78,0,0,1,38.4,106.47Z"/><g id="UGRdFw.tif"><g id="D7awSu.tif"><path class="cls-1" d="M111,13.72c0,.28.23.36.38.49a56.24,56.24,0,0,1,7.18,8.47,20.88,20.88,0,0,1,2.85,6.54,62.47,62.47,0,0,1,2.1,8.88,11.14,11.14,0,0,1,0,2.7,9.44,9.44,0,0,0,.06,2.51,7.77,7.77,0,0,1-.71,4.36A1.23,1.23,0,0,0,123,49.1a.74.74,0,0,1,0,.9,29.44,29.44,0,0,1-2.35,3.66,11.54,11.54,0,0,0-1.5,2.8,26.21,26.21,0,0,1-3.73,6.17c-1,1.43-1.89,2.95-2.84,4.43h0c-.15,0-.2.12-.21.25a3.17,3.17,0,0,1-.94,1.16,50.61,50.61,0,0,1-4.39,4.38,31.19,31.19,0,0,1-11.21,5.41,34.79,34.79,0,0,1-7.63,1.14,39.9,39.9,0,0,1-12.14-.85,42.9,42.9,0,0,1-14.38-6.88,12.09,12.09,0,0,1-3-2.59l.07-.08c.56.19,1.13.37,1.68.57a1.2,1.2,0,0,1,.79.64,1.8,1.8,0,0,0,.93.93c.56.3,1.11.62,1.69.88,2.19,1,4.17,2.34,6.41,3.23a30,30,0,0,0,7.24,2.22c2.27.29,4.55.52,6.84.58a32.15,32.15,0,0,0,7.39-.52A35.26,35.26,0,0,0,101.14,74a28.82,28.82,0,0,0,4-2.46.47.47,0,0,0,.36-.26.45.45,0,0,0,.36-.25L106,71l0,0c-.07,0-.1,0-.09.1-.18,0-.35,0-.37.24a.34.34,0,0,0-.41.21,1.41,1.41,0,0,0-.6.29A34.63,34.63,0,0,1,99.7,74.2a36.51,36.51,0,0,1-16,2.75,38.06,38.06,0,0,1-8.1-1.29A40.1,40.1,0,0,1,63.66,70,27.67,27.67,0,0,1,53.44,57.62,47.35,47.35,0,0,1,51.51,52c.43.37.45,1,.87,1.36,1,2.17,2.33,4.13,3.51,6.2.09.15.28.14.31.31v0h0c-.15-.33-.3-.65-.46-1-1.07-2.11-2.13-4.22-3-6.43a29.64,29.64,0,0,1-2.18-11.66c.12-1.18.21-2.36.37-3.53a25.05,25.05,0,0,1,2.39-8,2.48,2.48,0,0,1,.73-1,24.43,24.43,0,0,1-.53,2.75,37.29,37.29,0,0,0-1.43,5.52A31.7,31.7,0,0,0,51.93,47a33.56,33.56,0,0,0,6.3,15A3.2,3.2,0,0,0,59.15,63c0,.07,0,.13.13.11h0a.28.28,0,0,0,.13.26h0l.13.14h0l.13.13h0l.13.13h0A27.78,27.78,0,0,0,66,69.32a33,33,0,0,0,23.12,5.51,32,32,0,0,0,13.51-5,33.94,33.94,0,0,0,10.75-11.46A35.41,35.41,0,0,0,118.07,34a28,28,0,0,0-2.71-8.5.22.22,0,0,0-.15-.26h0c0-.2-.09-.35-.17-.51A30.14,30.14,0,0,0,111,18.57,32.93,32.93,0,0,0,93.4,7.7a21.39,21.39,0,0,0-5.33-.75c-1.43,0-2.84.36-4.28.37a.33.33,0,0,0-.34.21,1,1,0,0,1-.69.47,12,12,0,0,1-2,.4,69.69,69.69,0,0,0-6.88,1.22c-.35.08-.64.19-.64.6,0,.71-.44,1-1,1.16a3.54,3.54,0,0,0-1.8,1h0a.14.14,0,0,0-.17.1c-1.56,1.12-3.07,2.29-4.52,3.56a.37.37,0,0,0-.36.29h0c-.09,0-.14,0-.14.11h0c-.08,0-.13,0-.13.12h0c-.13,0-.21,0-.22.16l0,0,0,0c-.09,0-.14,0-.14.11h0c-.09,0-.14,0-.13.12h0c-.08,0-.13,0-.13.12h0c-.13,0-.21,0-.22.16l0,0,0,0c-.09,0-.14,0-.14.11h0c-.09,0-.14,0-.13.12h0c-.09,0-.14,0-.13.12h0c-.09,0-.14,0-.13.12h0c-.14,0-.23,0-.21.17h0c-.26-.1-.37.13-.51.25a34.47,34.47,0,0,0-5,4.82c-.34.41-.35.4-.63,0l-.4.45c-.12-.68-.39-.48-.67-.17s-.41.52-.64.82c-.19-.35,0-.87-.33-.92s-.52.4-.74.66a18.46,18.46,0,0,0-2,3c-.32.56-.78.58-1.12,0a3.93,3.93,0,0,1-.46-1.06,3.82,3.82,0,0,0-1.39-2.1.81.81,0,0,1,0-.75,3.7,3.7,0,0,0,.4-2.45,3.69,3.69,0,0,0,.59-1.07,21.05,21.05,0,0,1,7.72-9.17,2.79,2.79,0,0,1,.47-.28c.24-.1.46-.1.46.25s.24.32.46.16L61,9.33c.09-.07.25-.22.3-.13.31.61.52,0,.63-.09a17.8,17.8,0,0,1,5.87-3.59c2.68-1.11,5.55-1.42,8.34-2.06a8.69,8.69,0,0,0,2.61-.26A35.07,35.07,0,0,1,95.59,4.62c1.46.46,2.93.9,4.4,1.34a4.57,4.57,0,0,1,1.47.74,41.32,41.32,0,0,0,3.81,2.58.13.13,0,0,0,.15.09h0a.21.21,0,0,0,.25.14h0a55.91,55.91,0,0,1,5,3.94l.19.13h0c.05.1.07.26.25.14Z"/><path class="cls-2" d="M76.13,3.46c-2.79.64-5.66.95-8.34,2.06A17.8,17.8,0,0,0,61.92,9.1c-.11.11-.32.7-.63.09,0-.09-.21.07-.3.13l-1.25.89c-.22.15-.46.33-.46-.16s-.22-.35-.46-.25a2.79,2.79,0,0,0-.47.28,21.05,21.05,0,0,0-7.72,9.17A3.7,3.7,0,0,1,50,20.32a31.34,31.34,0,0,0-3,5.75c0,.06-.07.12-.06.17a4,4,0,0,1-.46,2.23A40.76,40.76,0,0,0,45,48.59,35.21,35.21,0,0,0,47.55,57c3,6.66,7.91,11.73,13.6,16.13.27.21.6.39.87.06s0-.63-.27-.86A49.33,49.33,0,0,1,54,65.18a24.64,24.64,0,0,1-4.73-7.41,60.77,60.77,0,0,1-2.92-10.89,31.42,31.42,0,0,1-.75-9.21,21.74,21.74,0,0,1,.6-3.86c.13.22.26.45.41.67a1.86,1.86,0,0,0,2.55.72,4.49,4.49,0,0,0,1.48-5.64,2.13,2.13,0,0,0-2.1-1.11,4.66,4.66,0,0,0-1.1.52,26.43,26.43,0,0,1,2.21-5.46,3.82,3.82,0,0,1,1.39,2.1,3.93,3.93,0,0,0,.46,1.06c.34.56.79.54,1.12,0a18.46,18.46,0,0,1,2-3c.22-.26.43-.7.74-.66s.13.57.33.92c.23-.3.42-.57.64-.82s.55-.51.67.17l.4-.45c.28.44.29.45.63,0A34.47,34.47,0,0,1,63,18c.14-.12.25-.35.51-.25,0,.23-.24.32-.39.45a30.92,30.92,0,0,0-3.26,3.5,42.48,42.48,0,0,0-7.33,14.47,7.4,7.4,0,0,0-.35,1.42,31.82,31.82,0,0,0,3,17.48,24.79,24.79,0,0,0,3.13,5,1.58,1.58,0,0,0,.42.56,1,1,0,0,0,.56.54,1.12,1.12,0,0,0-.43-.67,1.53,1.53,0,0,0-.42-.56l-.34-.51a28.62,28.62,0,0,1-3.3-5.95A29.78,29.78,0,0,1,52.67,43a28.87,28.87,0,0,1,.23-4.35c.11-.81.47-1.27.93-1.15.69.18.55.79.55,1.27,0,.65-.11,1.31-.14,2a29.2,29.2,0,0,0,1.81,11.94,23.83,23.83,0,0,0,9.46,12,2.22,2.22,0,0,1,.95.94.55.55,0,0,1-.09.63.53.53,0,0,1-.62.15,3.48,3.48,0,0,1-.54-.28,25.35,25.35,0,0,1-5.38-4.46c-.14-.15-.24-.36-.5-.39,0,.24.11.34.21.45a30.25,30.25,0,0,0,12.69,8.79,28.53,28.53,0,0,0,11.1,1.71c.31,0,.65-.08.9.18-.06.19-.2.17-.32.18a27.37,27.37,0,0,1-7.11-.16,30,30,0,0,1-14.75-6.69,28.47,28.47,0,0,0-2.3-2h0a.12.12,0,0,0-.13-.13h0a.12.12,0,0,0-.13-.13h0a.14.14,0,0,0-.13-.14h0l-.13-.26h0L59.15,63A3.2,3.2,0,0,1,58.24,62a33.56,33.56,0,0,1-6.3-15,31.7,31.7,0,0,1,.13-10.57,37.29,37.29,0,0,1,1.43-5.52A24.43,24.43,0,0,0,54,28.18a2.48,2.48,0,0,0-.73,1,25.05,25.05,0,0,0-2.39,8c-.16,1.17-.25,2.35-.37,3.53,0-.18,0-.37,0-.55a31.25,31.25,0,0,1,1-7.16c.25-1,.54-2,.83-3a.81.81,0,0,0-.35.5,33.08,33.08,0,0,0-2.12,7.29,7.4,7.4,0,0,0-.26,2.49,16.18,16.18,0,0,1,.24,2.44,27.8,27.8,0,0,0,.57,4.62c0,.2,0,.45.33.5s.27.29.32.49l1.35,5c-.42-.37-.44-1-.87-1.36a47.35,47.35,0,0,0,1.94,5.64A27.67,27.67,0,0,0,63.66,70a40.1,40.1,0,0,0,11.93,5.66,38.06,38.06,0,0,0,8.1,1.29,36.51,36.51,0,0,0,16-2.75,34.63,34.63,0,0,0,4.82-2.44,1.4,1.4,0,0,1,.6-.29l.05,0a28.82,28.82,0,0,1-4,2.46,35.26,35.26,0,0,1-9.37,3.58,32.15,32.15,0,0,1-7.39.52c-2.3-.07-4.57-.29-6.84-.58a30,30,0,0,1-7.24-2.22C68.05,74.38,66.07,73,63.89,72c-.58-.26-1.13-.58-1.69-.88a1.8,1.8,0,0,1-.93-.93,1.2,1.2,0,0,0-.79-.64c-.56-.2-1.12-.38-1.68-.57,0-.07-.12-.12-.17-.06s.06.1.11.14a12.09,12.09,0,0,0,3,2.59,42.9,42.9,0,0,0,14.38,6.88,39.9,39.9,0,0,0,12.14.85,34.79,34.79,0,0,0,7.63-1.14,31.19,31.19,0,0,0,11.21-5.41,50.61,50.61,0,0,0,4.39-4.38,3.17,3.17,0,0,0,.94-1.16c.14,0,.37,0,.21-.25h0c.24.24.32-.05.4-.15a45.26,45.26,0,0,0,5.9-8c.17-.3.21-.67.49-.91.08-.06.14-.17.26-.13s.13.21.1.31a7.52,7.52,0,0,1-.4,1.22C113.77,71,104.63,78.18,92,80.72a38.78,38.78,0,0,1-14.42,0,6.54,6.54,0,0,0-1.86-.06A2.58,2.58,0,0,0,77,81.1a54.53,54.53,0,0,0,10.78.62A45.33,45.33,0,0,0,102.39,79a27.61,27.61,0,0,0,8.06-4.85A42.08,42.08,0,0,0,123,57.32,19.37,19.37,0,0,0,124,53a34.15,34.15,0,0,0,.37-8.27c0-.55-.12-1.1-.19-1.65a2,2,0,0,1,.07-1.17,12.38,12.38,0,0,1,.45,2.93A31.41,31.41,0,0,1,123,58.21a34.25,34.25,0,0,1-5.66,9.38,40.57,40.57,0,0,1-11,9.86A38.1,38.1,0,0,1,93,82.22a41.84,41.84,0,0,1-10.17.38h-.28c.26.24.56.45.4.79a.82.82,0,0,1-.89.41A33.64,33.64,0,0,1,77.44,83a64.2,64.2,0,0,1-11.57-3.85c-.53-.23-1.06-.43-1.58-.67a2.59,2.59,0,0,1-.59-.43.63.63,0,0,1-.2-.78c.12-.27.37-.28.63-.26s.24.08.37,0a8.22,8.22,0,0,0-2.88-1.41,6,6,0,0,1-1.41-.72,38.77,38.77,0,0,1-16.3-22.41,38.62,38.62,0,0,1-1.45-12.52A41.24,41.24,0,0,1,56,10.72,42.36,42.36,0,0,1,76.82.19,44.71,44.71,0,0,1,89.17-.56a48.49,48.49,0,0,1,18.75,5.39,3.54,3.54,0,0,1,1.24.92,1.67,1.67,0,0,1-.9-.29A55,55,0,0,0,95.42.84,46.78,46.78,0,0,0,82.65,0a20.49,20.49,0,0,0-4.92.92C78.84.75,80,.6,81.07.48A41.6,41.6,0,0,1,90,.58C94,1,97.88,2.45,101.75,3.69a7.22,7.22,0,0,1,2.39,1.24c.42.34.68.71.39,1.27s-.75.53-1.22.41a36.73,36.73,0,0,1-4-1.5A42.25,42.25,0,0,0,82.4,2.51a34.37,34.37,0,0,0-5.66.73C76.54,3.29,76.29,3.26,76.13,3.46ZM49.32,41.8a2.51,2.51,0,0,0-.42-1.55,1.47,1.47,0,0,0-2.58,0,3,3,0,0,0-.07,3.09,1.42,1.42,0,0,0,1.31.77A1.51,1.51,0,0,0,49,43.25,3,3,0,0,0,49.32,41.8Zm.36,9.33a2.45,2.45,0,0,0-.53-1.74.79.79,0,0,0-1.37.17,2.77,2.77,0,0,0,.09,2.64.83.83,0,0,0,.86.47.93.93,0,0,0,.78-.61A2.08,2.08,0,0,0,49.69,51.13Z"/><path class="cls-2" d="M110.62,13.44a55.91,55.91,0,0,0-5-3.94A18.6,18.6,0,0,1,109,11.32a40.32,40.32,0,0,1,15.47,17.14,37.91,37.91,0,0,1,3.36,11.75,5.17,5.17,0,0,1,0,1.1c0,.24,0,.64-.31.63s-.24-.38-.27-.62c-.08-.59-.14-1.18-.24-1.76a39.14,39.14,0,0,0-14.74-25c-.4-.32-.73-.76-1.29-.84l0,0c0-.15-.08-.25-.25-.14h0C110.83,13.42,110.73,13.42,110.62,13.44Z"/><path class="cls-2" d="M105.66,9.5a.21.21,0,0,1-.25-.14C105.52,9.36,105.62,9.37,105.66,9.5Z"/><path class="cls-2" d="M105.42,9.37a.13.13,0,0,1-.15-.09A.12.12,0,0,1,105.42,9.37Z"/><path class="cls-2" d="M115.22,25.27c-.77-1-1.51-2.08-2.32-3.08A35.28,35.28,0,0,0,91.5,9.36a34.33,34.33,0,0,0-16.63,1,1.17,1.17,0,0,0-.75.47,1,1,0,0,1-.43.33,21.75,21.75,0,0,1-3.33,1.21,3.54,3.54,0,0,1,1.8-1c.61-.19,1-.45,1-1.16,0-.41.29-.52.64-.6A69.69,69.69,0,0,1,80.72,8.4a12,12,0,0,0,2-.4,1,1,0,0,0,.69-.47.33.33,0,0,1,.34-.21c1.44,0,2.85-.36,4.28-.37a21.39,21.39,0,0,1,5.33.75A32.93,32.93,0,0,1,111,18.57,30.14,30.14,0,0,1,115,24.76C115.13,24.92,115.26,25.07,115.22,25.27Z"/><path class="cls-2" d="M105.53,71.26a.47.47,0,0,1-.36.26l-.05,0a.34.34,0,0,1,.41-.21Z"/><path class="cls-2" d="M105.53,71.26c0-.24.19-.25.37-.24h0a.45.45,0,0,1-.36.25Z"/><path class="cls-2" d="M65.67,16c-.07.16-.17.29-.36.29A.37.37,0,0,1,65.67,16Z"/><path class="cls-3" d="M112.65,67.07c.15.27-.07.23-.21.25C112.45,67.19,112.49,67.08,112.65,67.07Z"/><path class="cls-2" d="M64.43,17a.18.18,0,0,1-.22.16C64.22,17,64.3,17,64.43,17Z"/><path class="cls-2" d="M105.9,71c0-.07,0-.1.09-.1l0,0-.14.06Z"/><path class="cls-3" d="M110.81,13.57c.17-.11.22,0,.25.14C110.88,13.83,110.86,13.67,110.81,13.57Z"/><path class="cls-2" d="M63.69,17.61a.16.16,0,0,1-.21.17C63.47,17.61,63.55,17.58,63.69,17.61Z"/><path class="cls-2" d="M115.36,25.53a.24.24,0,0,1-.15-.26A.22.22,0,0,1,115.36,25.53Z"/><path class="cls-2" d="M65,16.51a.18.18,0,0,1-.22.16C64.84,16.53,64.92,16.49,65,16.51Z"/><path class="cls-3" d="M59.26,63.14l.13.26A.28.28,0,0,1,59.26,63.14Z"/><path class="cls-2" d="M70.36,12.34c0,.1-.09.11-.17.1A.14.14,0,0,1,70.36,12.34Z"/><path class="cls-3" d="M59.15,63l.13.11C59.18,63.17,59.16,63.1,59.15,63Z"/><path class="cls-3" d="M59.38,63.38a.14.14,0,0,1,.13.14Z"/><path class="cls-3" d="M59.51,63.51a.12.12,0,0,1,.13.13Z"/><path class="cls-3" d="M59.63,63.63a.12.12,0,0,1,.13.13Z"/><path class="cls-3" d="M110.62,13.44c.11,0,.2,0,.19.13Z"/><polygon class="cls-3" points="56.18 59.84 56.21 59.83 56.19 59.85 56.18 59.84"/><path class="cls-2" d="M65.32,16.28c0,.09-.05.12-.14.11S65.23,16.27,65.32,16.28Z"/><path class="cls-2" d="M65.18,16.39c0,.09-.05.12-.13.12S65.1,16.39,65.18,16.39Z"/><path class="cls-2" d="M64.83,16.67c0,.09-.05.12-.14.11S64.74,16.65,64.83,16.67Z"/><path class="cls-2" d="M63.82,17.5c0,.09,0,.13-.13.12S63.73,17.48,63.82,17.5Z"/><path class="cls-2" d="M63.95,17.38c0,.09,0,.13-.13.12S63.86,17.37,63.95,17.38Z"/><path class="cls-2" d="M64.08,17.26c0,.09,0,.13-.13.12S64,17.25,64.08,17.26Z"/><path class="cls-2" d="M64.22,17.16q0,.14-.14.11C64.08,17.17,64.13,17.14,64.22,17.16Z"/><path class="cls-2" d="M64.56,16.88c0,.09,0,.12-.13.12S64.48,16.88,64.56,16.88Z"/><path class="cls-2" d="M64.69,16.77c0,.09-.05.12-.13.12S64.61,16.76,64.69,16.77Z"/><path class="cls-1" d="M46.21,33.82a5.43,5.43,0,0,1,.66-4c.18-.29.39-.57.59-.85a4.67,4.67,0,0,1,1.1-.52,2.13,2.13,0,0,1,2.1,1.11,4.49,4.49,0,0,1-1.48,5.64,1.86,1.86,0,0,1-2.55-.72C46.48,34.27,46.35,34,46.21,33.82Z"/><path class="cls-1" d="M49.32,41.8A3,3,0,0,1,49,43.25a1.51,1.51,0,0,1-1.49.88,1.42,1.42,0,0,1-1.31-.77,3,3,0,0,1,.07-3.09,1.47,1.47,0,0,1,2.58,0A2.51,2.51,0,0,1,49.32,41.8Z"/><path class="cls-1" d="M49.69,51.13a2.08,2.08,0,0,1-.16.94.93.93,0,0,1-.78.61.83.83,0,0,1-.86-.47,2.77,2.77,0,0,1-.09-2.64.79.79,0,0,1,1.37-.17A2.45,2.45,0,0,1,49.69,51.13Z"/><path class="cls-3" d="M58.87,60.59a1.12,1.12,0,0,1,.43.67,1,1,0,0,1-.56-.54Z"/><path class="cls-1" d="M58.73,69.1s-.16-.06-.11-.14.13,0,.17.06Z"/></g></g><g id="BIlcxR.tif"><path d="M-.32,129.17a44.75,44.75,0,0,1,5.12,0,4.39,4.39,0,0,1,3.85,3.55,4.69,4.69,0,0,1-1.81,5.11l-.36.28a15.53,15.53,0,0,1,1.66,1.54,5.18,5.18,0,0,1,.74,5.81A5.24,5.24,0,0,1,4,148.68c-1.4,0-2.81,0-4.27,0Zm1.18,1.16v17.14c1.09,0,2.15,0,3.2,0a4,4,0,0,0,3.8-2.61,4.13,4.13,0,0,0-.8-4.61,4.42,4.42,0,0,0-3.11-1.4V137.7l.76-.14a3.69,3.69,0,0,0,2.91-3.73,3.59,3.59,0,0,0-3.12-3.48A33.93,33.93,0,0,0,.86,130.33Z"/><path d="M52.53,138.81l6.53,9.78c-1.24.24-1.32.21-2-.75l-6.36-9.55c-.11-.17-.22-.35-.4-.64h1.34a3.68,3.68,0,1,0,0-7.36H48.1v18.34H46.9V129.08c1.68,0,3.33,0,5,0A4.64,4.64,0,0,1,55.66,131a4.89,4.89,0,0,1-2.73,7.73Z"/><path d="M75.21,137.66h1.44a3.7,3.7,0,0,0,3.69-3.73,3.66,3.66,0,0,0-3.7-3.63H73v18.35H71.77V129.08h1.48a35.28,35.28,0,0,1,4.09.07,4.75,4.75,0,0,1,4.18,4.59,4.85,4.85,0,0,1-3.78,5l-.34.08,6.52,9.77c-1.2.26-1.32.21-2-.73l-6.36-9.55C75.49,138.12,75.38,137.93,75.21,137.66Z"/><path d="M173.59,138.91c0,1.61,0,3.22,0,4.84a4.94,4.94,0,0,1-3.67,4.8,4.88,4.88,0,0,1-6.11-4.61c0-3.31,0-6.61,0-9.92a4.9,4.9,0,1,1,9.79,0C173.6,135.64,173.59,137.28,173.59,138.91Zm-1.22,0c0-1.61,0-3.22,0-4.84a3.68,3.68,0,1,0-7.36,0q0,4.84,0,9.67a3.68,3.68,0,1,0,7.36,0C172.38,142.09,172.38,140.48,172.38,138.86Z"/><path d="M96.66,129.1h9.7v1.18H97.85v7.94h6v1.24h-6v8h8.51v1.18H96.66Z"/><path d="M34.25,148.61l-.13.06c-1.08.07-1.08.07-1.4-.95l-4.35-13.83-.22-.68c-.13.37-.23.6-.3.84l-4.27,13.66c-.32,1-.32,1-1.54.94l6-19.36h.12Z"/><path d="M151.14,129.11v1.17h-4.24v18.36h-1.22V130.32h-4.25v-1.2Z"/><path d="M124.51,148.66h-1.18V130.32H119v-1.2h9.72v1.16h-4.24Z"/></g></svg>