<?xml version="1.0" encoding="utf-8"?>
<!-- Generator: Adobe Illustrator 21.0.2, SVG Export Plug-In . SVG Version: 6.00 Build 0)  -->
<svg version="1.1" id="Camada_1" xmlns="http://www.w3.org/2000/svg" xmlns:xlink="http://www.w3.org/1999/xlink" x="0px" y="0px"
	 viewBox="0 0 433 100" style="enable-background:new 0 0 433 100;" xml:space="preserve">
<style type="text/css">
	.st0{fill:#820000;}
	.st1{fill:#67AE3E;}
	.st2{fill:#FEFEFE;}
</style>
<title>logo</title>
<g id="xJthWJ.tif">
	<g id="BIlcxR.tif">
		<path d="M241.6,39.9c1.8-0.1,3.7-0.1,5.5,0c2.1,0.2,3.8,1.8,4.1,3.8c0.6,2.1-0.2,4.3-1.9,5.5l-0.4,0.3c0.6,0.5,1.2,1.1,1.8,1.7
			c1.5,1.7,1.8,4.2,0.8,6.2c-0.9,2.1-3,3.5-5.3,3.4c-1.5,0-3,0-4.6,0L241.6,39.9z M242.8,41.2v18.4c1.2,0,2.3,0,3.4,0
			c1.8,0,3.4-1.1,4.1-2.8c0.8-1.7,0.4-3.7-0.9-5c-0.9-0.9-2.1-1.5-3.4-1.5v-1.2l0.8-0.2c1.9-0.4,3.2-2.1,3.1-4
			c0-1.9-1.5-3.5-3.4-3.7C245.4,41.1,244.1,41.1,242.8,41.2z"/>
		<path d="M298.4,50.3l7,10.5c-1.3,0.3-1.4,0.2-2.1-0.8l-6.8-10.3c-0.1-0.2-0.2-0.4-0.4-0.7h1.4c2.2,0.3,4.2-1.2,4.6-3.4
			c0.3-2.2-1.2-4.2-3.4-4.6c-0.4-0.1-0.8-0.1-1.2,0h-3.8v19.7h-1.3v-21c1.8,0,3.6,0,5.4,0c1.6,0,3.1,0.8,4.1,2.1
			c1.8,2.3,1.3,5.6-1,7.4c-0.6,0.5-1.3,0.8-2,0.9L298.4,50.3z"/>
		<path d="M322.8,49h1.5c2.2,0,4-1.8,4-4c0-2.2-1.8-3.9-4-3.9c0,0,0,0,0,0h-4v19.8h-1.3v-21h1.6c1.5-0.1,2.9,0,4.4,0.1
			c2.5,0.3,4.4,2.4,4.5,4.9c0.1,2.5-1.6,4.8-4.1,5.4l-0.4,0.1l7,10.5c-1.3,0.3-1.4,0.2-2.1-0.8l-6.8-10.3
			C323.1,49.5,322.9,49.3,322.8,49z"/>
		<path d="M428.5,50.4c0,1.7,0,3.5,0,5.2c0,2.4-1.6,4.5-3.9,5.2c-2.8,0.7-5.7-1-6.4-3.8c-0.1-0.4-0.2-0.8-0.2-1.2
			c0-3.6,0-7.1,0-10.7c0-2.9,2.4-5.3,5.3-5.3c2.9,0,5.3,2.4,5.3,5.3C428.5,46.9,428.5,48.6,428.5,50.4z M427.2,50.4
			c0-1.7,0-3.5,0-5.2c0.3-2.2-1.2-4.2-3.4-4.5c-2.2-0.3-4.2,1.2-4.5,3.4c-0.1,0.4-0.1,0.8,0,1.1c0,3.5,0,6.9,0,10.4
			c-0.3,2.2,1.2,4.2,3.4,4.5c2.2,0.3,4.2-1.2,4.5-3.4c0.1-0.4,0.1-0.8,0-1.1C427.2,53.8,427.2,52.1,427.2,50.4L427.2,50.4z"/>
		<path d="M345.8,39.8h10.4v1.3h-9.1v8.5h6.5V51h-6.5v8.6h9.1v1.3h-10.4V39.8z"/>
		<path d="M278.7,60.8l-0.1,0.1c-1.2,0.1-1.2,0.1-1.5-1L272.4,45l-0.2-0.7c-0.1,0.4-0.2,0.7-0.3,0.9l-4.6,14.7
			c-0.3,1.1-0.3,1.1-1.7,1l6.5-20.8h0.1L278.7,60.8z"/>
		<path d="M404.4,39.9v1.3h-4.5v19.8h-1.3V41.2H394v-1.3H404.4z"/>
		<path d="M375.8,60.9h-1.3V41.2h-4.6v-1.3h10.5v1.2h-4.6L375.8,60.9z"/>
		<g id="UGRdFw.tif">
			<path d="M89.5,60.7c-0.8,0.3-1.7,0-2.2-0.8c-2.2-3.5-4.6-6.9-6.9-10.4c-0.1-0.2-0.3-0.4-0.4-0.7h1.6c2.2,0,3.9-1.8,3.9-4
				c0-2.2-1.7-3.9-3.9-4c0,0,0,0,0,0c-1.3,0-2.6,0-4,0v19.9h-1.3V39.6c2,0,4-0.2,6,0c2.5,0.3,4.4,2.3,4.6,4.7c0.3,2.6-1.4,5-3.9,5.6
				l-0.6,0.2L89.5,60.7z"/>
			<path d="M113.8,50.1c0,1.8,0,3.5,0,5.3c0,2.8-2.1,5.1-4.8,5.3c-2.9,0.2-5.4-1.9-5.8-4.8c0-0.1,0-0.2,0-0.3c0-3.6,0-7.2,0-10.9
				c0.1-2.9,2.5-5.2,5.4-5.2c2.8,0.1,5,2.2,5.2,5c0,0.1,0,0.1,0,0.2C113.8,46.6,113.8,48.4,113.8,50.1z M112.5,50.1L112.5,50.1
				c0-1.7,0-3.4,0-5.1c0-2.5,0-0.1,0-0.1c0-2.2-1.8-4-4-4s-4,1.8-4,4c0,3.5,0,6.9,0,10.4c0,0.5,0.1,1,0.2,1.4
				c0.8,2.1,3.1,3.1,5.2,2.3c1.5-0.6,2.5-1.9,2.6-3.5C112.5,53.8,112.5,52,112.5,50.1L112.5,50.1z"/>
			<path d="M52.1,60.8V39.5c5.9,0,10.6,4.8,10.6,10.6c0,1.7-0.4,3.3-1.2,4.8C59.7,58.6,56.1,60.8,52.1,60.8z M53.4,41v18.3
				c4.7-0.6,8.2-4.8,7.9-9.6C61.1,45.2,57,40.8,53.4,41z"/>
			<path d="M38.3,39.6v1.3h-9.2v8.6h6.5v1.3h-6.5v8.6h9.2v1.3H27.8V39.6H38.3z"/>
			<path d="M6.8,50.2v-1.4h1.9c2.2,0,4-1.8,4-4s-1.8-4-4-4H4.8v19.9H3.5V39.7c2.1-0.1,4.3-0.1,6.4,0c2.4,0.3,4.1,2.7,4.1,5.2
				c0,2.5-1.7,4.6-4.1,5.2C8.9,50.1,7.8,50.2,6.8,50.2z"/>
			<g id="D7awSu.tif">
				<path class="st0" d="M207.8,20.5c0,0.3,0.2,0.4,0.4,0.5c2.9,2.8,5.5,5.8,7.7,9.1c1.4,2.1,2.4,4.5,3.1,7c1,3.1,1.7,6.3,2.2,9.5
					c0.1,1,0.1,1.9,0,2.9c-0.1,0.9-0.1,1.8,0.1,2.7c0.2,1.6-0.1,3.2-0.8,4.7c-0.3,0.5-0.2,1.1,0.1,1.5c0.2,0.3,0.2,0.7,0,1
					c-0.7,1.4-1.6,2.7-2.5,3.9c-0.7,0.9-1.2,1.9-1.6,3c-0.9,2.5-2.5,4.5-4,6.6c-1.1,1.5-2,3.2-3,4.8l0,0c-0.2,0-0.2,0.1-0.2,0.3
					c-0.2,0.5-0.6,0.9-1,1.2c-1.5,1.7-3.1,3.2-4.7,4.7c-3.6,2.7-7.7,4.7-12,5.8c-2.7,0.7-5.4,1.1-8.2,1.2c-4.4,0.4-8.8,0.1-13.1-0.9
					c-5.6-1.5-10.8-4-15.5-7.4c-1.2-0.7-2.4-1.7-3.3-2.8l0.1-0.1c0.6,0.2,1.2,0.4,1.8,0.6c0.4,0.1,0.7,0.3,0.9,0.7
					c0.2,0.4,0.6,0.8,1,1c0.6,0.3,1.2,0.7,1.8,0.9c2.4,1,4.5,2.5,6.9,3.5c2.5,1.1,5.1,1.9,7.8,2.4c2.4,0.3,4.9,0.6,7.4,0.6
					c2.7,0.1,5.3-0.1,7.9-0.6c3.5-0.8,6.9-2.1,10.1-3.8c1.5-0.8,3-1.6,4.3-2.6c0.2,0,0.3-0.1,0.4-0.3c0.2,0,0.3-0.1,0.4-0.3l0.1-0.1
					l0,0c0,0-0.1,0-0.1,0.1c-0.2,0-0.4,0-0.4,0.3c-0.2,0-0.4,0-0.4,0.2c-0.2,0-0.5,0.2-0.6,0.3c-1.7,1-3.4,1.9-5.2,2.6
					c-5.4,2.3-11.3,3.3-17.2,3c-2.9-0.1-5.9-0.6-8.7-1.4c-4.6-1.3-9-3.4-12.9-6.1c-4.9-3.3-8.7-7.9-11-13.3c-0.8-2-1.5-4-2.1-6.1
					c0.5,0.4,0.5,1.1,0.9,1.5c1.1,2.3,2.5,4.4,3.8,6.7c0.1,0.2,0.3,0.2,0.3,0.3l0,0l0,0c-0.2-0.3-0.3-0.7-0.5-1.1
					c-1.1-2.3-2.3-4.5-3.2-6.9c-1.6-4-2.4-8.2-2.3-12.5c0.1-1.3,0.2-2.5,0.4-3.8c0.4-3,1.2-5.9,2.6-8.6c0.2-0.4,0.4-0.8,0.8-1.1
					c-0.1,1-0.3,2-0.6,3c-0.7,1.9-1.2,3.9-1.5,5.9c-0.7,3.8-0.7,7.6-0.1,11.4c0.9,5.8,3.2,11.4,6.8,16.1c0.2,0.4,0.6,0.8,1,1.1
					c0,0.1,0,0.1,0.1,0.1l0,0c0,0.1,0,0.2,0.1,0.3l0,0l0.1,0.2l0,0l0.1,0.1l0,0l0.1,0.1l0,0c1.9,2.3,4.2,4.4,6.7,6
					c7.3,5,16.1,7.1,24.9,5.9c5.2-0.7,10.2-2.5,14.5-5.4c4.8-3.1,8.7-7.4,11.6-12.3c4.8-7.8,6.5-17.1,5-26.2
					c-0.5-3.2-1.5-6.3-2.9-9.1c0-0.1,0-0.2-0.2-0.3l0,0c0-0.2-0.1-0.4-0.2-0.5c-1.2-2.4-2.7-4.6-4.4-6.7c-4.9-5.9-11.5-10-18.9-11.8
					c-1.9-0.5-3.8-0.8-5.7-0.8c-1.5,0-3.1,0.4-4.6,0.4c-0.2,0-0.3,0.1-0.4,0.2c-0.2,0.3-0.4,0.5-0.7,0.5c-0.7,0.2-1.5,0.4-2.2,0.4
					c-2.5,0.3-5,0.7-7.4,1.3c-0.4,0.1-0.7,0.2-0.7,0.6c0,0.8-0.5,1-1.1,1.2c-0.7,0.1-1.4,0.5-1.9,1l0,0c-0.1,0-0.2,0-0.2,0.1
					c-1.7,1.2-3.3,2.5-4.9,3.8c-0.2,0-0.3,0.1-0.4,0.3l0,0c-0.1,0-0.1,0-0.1,0.1l0,0c-0.1,0-0.1,0-0.1,0.1l0,0c-0.1,0-0.2,0-0.2,0.2
					l0,0l0,0c-0.1,0-0.1,0-0.1,0.1l0,0c-0.1,0-0.1,0-0.1,0.1l0,0c-0.1,0-0.1,0-0.1,0.1l0,0c-0.1,0-0.2,0-0.2,0.2l0,0l0,0
					c-0.1,0-0.1,0-0.1,0.1l0,0c-0.1,0-0.1,0-0.1,0.1l0,0c-0.1,0-0.1,0-0.1,0.1l0,0c-0.1,0-0.1,0-0.1,0.1l0,0c-0.1,0-0.2,0-0.2,0.2
					l0,0c-0.3-0.1-0.4,0.1-0.6,0.3c-1.9,1.5-3.7,3.3-5.3,5.2c-0.4,0.4-0.4,0.4-0.7,0l-0.4,0.5c-0.1-0.7-0.4-0.5-0.7-0.2
					s-0.4,0.6-0.7,0.9c-0.2-0.4,0-0.9-0.4-1s-0.6,0.4-0.8,0.7c-0.8,1-1.5,2.1-2.1,3.3c-0.4,0.6-0.8,0.6-1.2,0
					c-0.2-0.4-0.4-0.7-0.5-1.1c-0.2-0.9-0.8-1.7-1.5-2.3c-0.1-0.3-0.1-0.5,0-0.8c0.3-0.9,0.8-1.7,0.4-2.6c0.3-0.3,0.5-0.7,0.6-1.1
					c1.8-4,4.6-7.4,8.3-9.9c0.2-0.1,0.3-0.2,0.5-0.3c0.3-0.1,0.5-0.1,0.5,0.3c0,0.5,0.3,0.3,0.5,0.2l1.3-1c0.1-0.1,0.3-0.2,0.3-0.1
					c0.3,0.7,0.6,0,0.7-0.1c1.8-1.7,4-3,6.3-3.9c2.9-1.2,6-1.5,9-2.2c0.9,0,1.9,0,2.8-0.3c6.1-1,12.3-0.4,18.1,1.5
					c1.6,0.5,3.1,1,4.7,1.4c0.6,0.2,1.1,0.4,1.6,0.8c1.3,1,2.7,1.9,4.1,2.8c0,0.1,0.1,0.1,0.2,0.1l0,0c0,0.1,0.1,0.2,0.2,0.2l0,0
					c1.9,1.3,3.6,2.7,5.4,4.2l0.2,0.1l0,0C207.6,20.5,207.6,20.7,207.8,20.5L207.8,20.5z"/>
				<path class="st1" d="M170.3,9.5c-3,0.7-6.1,1-9,2.2c-2.3,0.9-4.5,2.2-6.3,3.8c-0.1,0.1-0.4,0.8-0.7,0.1c0-0.1-0.2,0.1-0.3,0.1
					l-1.3,1c-0.2,0.2-0.5,0.4-0.5-0.2c0-0.4-0.2-0.4-0.5-0.3c-0.2,0.1-0.4,0.2-0.5,0.3c-3.7,2.4-6.5,5.8-8.3,9.9
					c-0.1,0.4-0.4,0.8-0.6,1.1c-1.3,1.9-2.4,4-3.2,6.1c0,0.1-0.1,0.1-0.1,0.2c0.1,0.8-0.1,1.7-0.5,2.4c-2.3,7-2.9,14.4-1.6,21.6
					c0.5,3.1,1.4,6.2,2.7,9.1c3.2,7.2,8.5,12.6,14.6,17.3c0.3,0.2,0.6,0.4,0.9,0.1s0-0.7-0.3-0.9c-3-2.3-5.8-4.8-8.3-7.7
					c-2.2-2.3-3.9-5-5.1-8c-1.4-3.8-2.5-7.7-3.1-11.7c-0.8-3.2-1-6.6-0.8-9.9c0.1-1.4,0.3-2.8,0.6-4.2c0.1,0.2,0.3,0.5,0.4,0.7
					c0.5,1,1.8,1.3,2.7,0.8c0,0,0,0,0,0c1.9-1.4,2.6-3.9,1.6-6.1c-0.4-0.8-1.3-1.3-2.2-1.2c-0.4,0.1-0.8,0.3-1.2,0.6
					c0.6-2,1.4-4,2.4-5.9c0.7,0.6,1.3,1.4,1.5,2.3c0.1,0.4,0.3,0.8,0.5,1.1c0.4,0.6,0.9,0.6,1.2,0c0.6-1.1,1.3-2.2,2.1-3.2
					c0.2-0.3,0.5-0.8,0.8-0.7s0.1,0.6,0.4,1c0.2-0.3,0.5-0.6,0.7-0.9s0.6-0.5,0.7,0.2l0.4-0.5c0.3,0.5,0.3,0.5,0.7,0
					c1.6-1.9,3.4-3.6,5.3-5.2c0.1-0.1,0.3-0.4,0.6-0.3c0,0.2-0.3,0.3-0.4,0.5c-1.3,1.2-2.4,2.4-3.5,3.8c-3.6,4.6-6.3,9.9-7.9,15.6
					c-0.2,0.5-0.3,1-0.4,1.5c-0.7,6.5,0.4,13,3.2,18.8c0.9,1.9,2,3.8,3.4,5.4c0.1,0.2,0.3,0.4,0.4,0.6c0.1,0.3,0.3,0.5,0.6,0.6
					c-0.1-0.3-0.2-0.5-0.5-0.7c-0.1-0.2-0.3-0.4-0.5-0.6l-0.4-0.5c-1.4-2-2.6-4.1-3.6-6.4c-1.4-3.6-2.2-7.5-2.3-11.3
					c0-1.6,0-3.1,0.2-4.7c0.1-0.9,0.5-1.4,1-1.2c0.7,0.2,0.6,0.8,0.6,1.4c0,0.7-0.1,1.4-0.1,2.1c-0.3,4.4,0.4,8.7,1.9,12.8
					c1.9,5.3,5.5,9.8,10.2,12.9c0.4,0.2,0.8,0.6,1,1c0.1,0.2,0.1,0.5-0.1,0.7c-0.2,0.2-0.4,0.3-0.7,0.2c-0.2-0.1-0.4-0.2-0.6-0.3
					c-2.1-1.3-4.1-2.9-5.8-4.8c-0.1-0.2-0.3-0.4-0.5-0.4c0,0.3,0.1,0.4,0.2,0.5c3.7,4.3,8.4,7.5,13.6,9.4c3.8,1.4,7.8,2,11.9,1.9
					c0.3,0,0.7-0.1,1,0.2c-0.1,0.2-0.2,0.2-0.3,0.2c-2.5,0.3-5.1,0.2-7.6-0.2c-5.8-0.9-11.3-3.4-15.9-7.2c-0.8-0.8-1.6-1.5-2.5-2.2
					l0,0c0-0.1,0-0.1-0.1-0.1c0,0,0,0,0,0l0,0c0-0.1,0-0.1-0.1-0.1c0,0,0,0,0,0l0,0c0-0.1-0.1-0.1-0.1-0.2l0,0l-0.1-0.3l0,0
					l-0.1-0.1c-0.4-0.3-0.8-0.7-1-1.1c-3.5-4.7-5.9-10.2-6.8-16.1c-0.6-3.8-0.5-7.6,0.1-11.4c0.4-2,1-4,1.6-5.9c0.2-1,0.4-2,0.6-3
					c-0.4,0.3-0.6,0.7-0.8,1.1c-1.3,2.7-2.2,5.6-2.6,8.6c-0.2,1.3-0.3,2.5-0.4,3.8c0-0.2,0-0.4,0-0.6c0-2.6,0.4-5.2,1-7.7
					c0.3-1.1,0.6-2.1,0.9-3.2c-0.2,0.1-0.3,0.3-0.4,0.5c-1.1,2.5-1.9,5.2-2.3,7.9c-0.2,0.9-0.3,1.8-0.3,2.7c0.2,0.9,0.2,1.7,0.3,2.6
					c0.1,1.7,0.3,3.4,0.6,5c0,0.2,0,0.5,0.4,0.5c0.2,0,0.3,0.3,0.4,0.5l1.4,5.3c-0.4-0.4-0.5-1.1-0.9-1.5c0.6,2.1,1.3,4.1,2.1,6.1
					c2.3,5.4,6.1,10.1,11,13.3c3.9,2.7,8.2,4.8,12.8,6.1c2.8,0.8,5.8,1.2,8.7,1.4c5.9,0.3,11.8-0.7,17.2-3c1.8-0.7,3.5-1.6,5.2-2.6
					c0.2-0.2,0.4-0.3,0.6-0.3h0.1c-1.4,1-2.8,1.9-4.3,2.6c-3.2,1.8-6.6,3.1-10.1,3.8c-2.6,0.5-5.3,0.7-7.9,0.6
					c-2.5-0.1-4.9-0.3-7.4-0.6c-2.7-0.4-5.3-1.2-7.8-2.3c-2.4-1-4.5-2.4-6.9-3.5c-0.6-0.3-1.2-0.6-1.8-0.9c-0.4-0.2-0.8-0.6-1-1
					c-0.2-0.3-0.5-0.6-0.9-0.7c-0.6-0.2-1.2-0.4-1.8-0.6c0-0.1-0.1-0.1-0.2-0.1s0.1,0.1,0.1,0.2c0.9,1.1,2,2,3.2,2.8
					c4.6,3.4,9.9,5.9,15.5,7.4c4.3,1,8.7,1.3,13.1,0.9c2.8-0.1,5.5-0.5,8.2-1.2c4.3-1.1,8.4-3.1,12-5.8c1.7-1.5,3.2-3,4.7-4.7
					c0.4-0.3,0.8-0.8,1-1.2c0.1,0,0.4,0,0.2-0.3l0,0c0.2,0.3,0.3-0.1,0.4-0.2c2.4-2.6,4.5-5.5,6.3-8.6c0.2-0.3,0.2-0.7,0.5-1
					c0.1-0.1,0.1-0.2,0.3-0.1s0.1,0.2,0.1,0.3c-0.1,0.4-0.2,0.9-0.4,1.3c-6,12.5-15.9,20.2-29.5,22.9c-5.1,1-10.4,1-15.5,0
					c-0.7-0.1-1.3-0.1-2-0.1c0.4,0.3,0.9,0.5,1.4,0.5c3.8,0.6,7.7,0.8,11.6,0.7c5.4-0.1,10.7-1.1,15.7-2.9c3.2-1.2,6.1-3,8.7-5.2
					c6-4.8,10.6-11,13.5-18.1c0.5-1.5,0.8-3.1,1-4.6c0.5-2.9,0.6-5.9,0.4-8.9c0-0.6-0.1-1.2-0.2-1.8c-0.1-0.4-0.1-0.9,0.1-1.3
					c0.3,1,0.5,2.1,0.5,3.2c0.4,4.9-0.2,9.8-1.8,14.4c-1.5,3.7-3.5,7.1-6.1,10.1c-3.2,4.2-7.2,7.8-11.7,10.6
					c-4.4,2.6-9.3,4.3-14.3,5.1c-3.6,0.6-7.3,0.7-10.9,0.4h-0.3c0.3,0.2,0.6,0.5,0.4,0.8c-0.2,0.4-0.6,0.5-1,0.4
					c-1.7-0.2-3.4-0.5-5-0.8c-4.3-1-8.4-2.4-12.4-4.1c-0.6-0.2-1.1-0.5-1.7-0.7c-0.2-0.1-0.4-0.3-0.6-0.5c-0.3-0.2-0.3-0.5-0.2-0.8
					c0.1-0.3,0.4-0.3,0.7-0.3c0.1,0,0.2,0.1,0.4-0.1c-0.9-0.7-2-1.2-3.1-1.5c-0.5-0.2-1-0.4-1.5-0.8c-8.6-5.6-14.9-14.2-17.5-24.1
					c-1.3-4.4-1.8-8.9-1.6-13.5c0.4-12,5.6-23.3,14.5-31.4c6.3-5.8,14-9.7,22.4-11.3c4.4-0.9,8.8-1.2,13.3-0.8
					c7,0.5,13.9,2.5,20.2,5.8c0.5,0.2,1,0.6,1.3,1c-0.4,0-0.7-0.1-1-0.3c-4.4-2.2-9-3.9-13.8-5c-4.5-0.9-9.1-1.3-13.7-0.9
					c-1.8,0.1-3.6,0.5-5.3,1c1.2-0.2,2.4-0.3,3.6-0.4c3.2-0.3,6.4-0.3,9.6,0.1c4.4,0.5,8.5,2,12.7,3.3c1,0.2,1.9,0.7,2.6,1.2
					c0.4,0.4,0.7,0.8,0.4,1.4s-0.8,0.6-1.3,0.4c-1.5-0.5-2.9-1-4.3-1.6c-5.8-2.1-12-3.1-18.2-2.7c-2,0.1-4.1,0.4-6.1,0.8
					C170.7,9.3,170.5,9.3,170.3,9.5z M141.5,50.7c0-0.6-0.1-1.2-0.5-1.7c-0.4-0.8-1.4-1-2.1-0.6c-0.3,0.1-0.5,0.4-0.6,0.6
					c-0.6,1-0.7,2.3-0.1,3.3c0.3,0.5,0.8,0.8,1.4,0.8c0.7,0.1,1.3-0.3,1.6-1C141.4,51.7,141.5,51.2,141.5,50.7z M141.9,60.7
					c0.1-0.7-0.1-1.3-0.6-1.9c-0.3-0.4-0.8-0.5-1.2-0.2c-0.1,0.1-0.2,0.2-0.3,0.4c-0.4,0.9-0.4,2,0.1,2.8c0.2,0.4,0.5,0.6,0.9,0.5
					c0.4,0,0.7-0.3,0.8-0.7C141.8,61.4,141.9,61.1,141.9,60.7L141.9,60.7z"/>
				<path class="st1" d="M207.4,20.2c-1.7-1.5-3.5-2.9-5.4-4.2c1.3,0.5,2.5,1.2,3.6,2c7.2,4.4,13,10.8,16.6,18.4
					c1.9,4,3.1,8.2,3.6,12.6c0,0.4,0,0.8,0,1.2c0,0.3,0,0.7-0.3,0.7s-0.2-0.4-0.3-0.7c-0.1-0.6-0.1-1.3-0.3-1.9
					c-1.6-10.7-7.3-20.3-15.8-26.9c-0.4-0.3-0.8-0.8-1.4-0.9l0,0c0-0.2-0.1-0.3-0.3-0.1l0,0C207.6,20.2,207.5,20.2,207.4,20.2z"/>
				<path class="st1" d="M202,16c-0.1,0-0.2,0-0.3-0.1C201.9,15.8,202,15.8,202,16z"/>
				<path class="st1" d="M201.8,15.8c-0.1,0-0.1,0-0.2-0.1C201.7,15.7,201.8,15.7,201.8,15.8C201.8,15.8,201.8,15.8,201.8,15.8z"/>
				<path class="st1" d="M212.3,32.9c-0.8-1.1-1.6-2.2-2.5-3.3c-5.7-7.2-13.9-12.2-23-13.8c-6-1.1-12.1-0.8-17.9,1.1
					c-0.3,0.1-0.6,0.2-0.8,0.5c-0.1,0.2-0.3,0.3-0.5,0.4c-1.2,0.5-2.4,1-3.6,1.3c0.5-0.5,1.2-0.9,1.9-1c0.7-0.2,1.1-0.5,1.1-1.2
					c0-0.4,0.3-0.6,0.7-0.6c2.4-0.6,4.9-1,7.4-1.3c0.7-0.1,1.5-0.2,2.2-0.4c0.3,0,0.6-0.2,0.7-0.5c0.1-0.1,0.2-0.2,0.4-0.2
					c1.5,0,3.1-0.4,4.6-0.4c1.9,0,3.9,0.3,5.7,0.8c7.4,1.8,14,5.9,18.9,11.7c1.7,2,3.2,4.3,4.4,6.7
					C212.2,32.5,212.4,32.7,212.3,32.9z"/>
				<path class="st1" d="M201.9,82.4c-0.1,0.2-0.2,0.3-0.4,0.3h-0.1C201.5,82.5,201.7,82.4,201.9,82.4L201.9,82.4z"/>
				<path class="st1" d="M201.9,82.4c0-0.3,0.2-0.3,0.4-0.3l0,0C202.2,82.3,202.1,82.4,201.9,82.4L201.9,82.4z"/>
				<path class="st1" d="M159.1,23c-0.1,0.2-0.2,0.3-0.4,0.3C158.7,23.1,158.9,23,159.1,23z"/>
				<path class="st2" d="M209.6,77.9c0.2,0.3-0.1,0.2-0.2,0.3C209.4,78,209.4,77.9,209.6,77.9z"/>
				<path class="st1" d="M157.7,24c0,0.1-0.1,0.2-0.2,0.2c0,0,0,0,0,0C157.5,24,157.6,24,157.7,24z"/>
				<path class="st1" d="M202.3,82.1c0-0.1,0-0.1,0.1-0.1s0,0,0,0L202.3,82.1L202.3,82.1z"/>
				<path class="st2" d="M207.6,20.3c0.2-0.1,0.2,0,0.3,0.1C207.7,20.6,207.6,20.5,207.6,20.3z"/>
				<path class="st1" d="M156.9,24.7c0,0.1-0.1,0.2-0.2,0.2c0,0,0,0-0.1,0C156.7,24.7,156.8,24.6,156.9,24.7z"/>
				<path class="st1" d="M212.5,33.2c-0.1,0-0.2-0.2-0.2-0.3C212.4,33,212.5,33.1,212.5,33.2z"/>
				<path class="st1" d="M158.4,23.5c0,0.1-0.1,0.2-0.2,0.2c0,0,0,0,0,0C158.2,23.5,158.2,23.5,158.4,23.5z"/>
				<path class="st2" d="M152.2,73.6l0.1,0.3C152.2,73.9,152.2,73.7,152.2,73.6z"/>
				<path class="st1" d="M164.1,19c0,0.1-0.1,0.1-0.2,0.1C163.9,19,164,19,164.1,19z"/>
				<path class="st2" d="M152,73.5l0.1,0.1C152.1,73.7,152.1,73.6,152,73.5z"/>
				<path class="st2" d="M152.3,73.9c0.1,0,0.1,0.1,0.1,0.2L152.3,73.9z"/>
				<path class="st2" d="M152.4,74c0.1,0,0.1,0,0.1,0.1c0,0,0,0,0,0L152.4,74z"/>
				<path class="st2" d="M152.6,74.2c0.1,0,0.1,0,0.1,0.1c0,0,0,0,0,0L152.6,74.2z"/>
				<path class="st2" d="M207.4,20.2c0.1,0,0.2,0,0.2,0.1L207.4,20.2z"/>
				<polygon class="st2" points="148.9,70.1 148.9,70.1 148.9,70.1 				"/>
				<path class="st1" d="M158.7,23.3c0,0.1-0.1,0.1-0.1,0.1S158.6,23.2,158.7,23.3z"/>
				<path class="st1" d="M158.5,23.4c0,0.1-0.1,0.1-0.1,0.1S158.4,23.4,158.5,23.4z"/>
				<path class="st1" d="M158.1,23.7c0,0.1-0.1,0.1-0.1,0.1S158.1,23.6,158.1,23.7z"/>
				<path class="st1" d="M157.1,24.6c0,0.1,0,0.1-0.1,0.1S157,24.5,157.1,24.6z"/>
				<path class="st1" d="M157.2,24.4c0,0.1,0,0.1-0.1,0.1S157.1,24.4,157.2,24.4z"/>
				<path class="st1" d="M157.3,24.3c0,0.1-0.1,0.1-0.1,0.1S157.2,24.3,157.3,24.3z"/>
				<path class="st1" d="M157.5,24.2c0,0.1-0.1,0.1-0.1,0.1C157.3,24.2,157.4,24.2,157.5,24.2z"/>
				<path class="st1" d="M157.9,23.9c0,0.1-0.1,0.1-0.1,0.1S157.8,23.9,157.9,23.9z"/>
				<path class="st1" d="M158,23.8c0,0.1-0.1,0.1-0.1,0.1S157.9,23.8,158,23.8z"/>
				<path class="st0" d="M138.1,42.1c-0.3-1.5-0.1-3,0.7-4.3c0.2-0.3,0.4-0.6,0.6-0.9c0.4-0.2,0.8-0.4,1.2-0.6
					c0.9-0.1,1.8,0.4,2.2,1.2c1,2.1,0.4,4.7-1.6,6.1c-1,0.5-2.2,0.2-2.7-0.7c0,0,0,0,0,0C138.4,42.6,138.3,42.3,138.1,42.1z"/>
				<path class="st0" d="M141.5,50.7c0,0.5-0.1,1.1-0.3,1.6c-0.3,0.6-0.9,1-1.6,1c-0.6,0-1.1-0.3-1.4-0.8c-0.6-1-0.6-2.3,0.1-3.3
					c0.4-0.8,1.4-1,2.1-0.6c0.3,0.1,0.5,0.3,0.6,0.6C141.3,49.5,141.5,50.1,141.5,50.7z"/>
				<path class="st0" d="M141.9,60.7c0,0.3,0,0.7-0.2,1c-0.1,0.4-0.5,0.6-0.8,0.7c-0.4,0.1-0.8-0.2-0.9-0.5
					c-0.5-0.9-0.5-1.9-0.1-2.8c0.2-0.4,0.7-0.6,1.1-0.5c0.1,0.1,0.3,0.2,0.4,0.3C141.7,59.4,141.9,60,141.9,60.7z"/>
				<path class="st2" d="M151.7,70.9c0.2,0.2,0.4,0.4,0.5,0.7c-0.3-0.1-0.5-0.3-0.6-0.6L151.7,70.9z"/>
				<path class="st0" d="M151.6,80c-0.1,0-0.2-0.1-0.1-0.2S151.6,79.8,151.6,80L151.6,80z"/>
			</g>
		</g>
	</g>
</g>
<g>
	<path d="M313.7,79v-0.3h5.2c-0.1,1-0.6,1.8-1.4,2.5s-1.7,1-2.8,1c-1.2,0-2.2-0.4-3-1.2c-0.8-0.8-1.3-1.8-1.3-2.9
		c0-1.2,0.4-2.1,1.2-2.9c0.8-0.8,1.8-1.2,3-1.2c0.7,0,1.4,0.2,2.1,0.5c0.6,0.3,1.1,0.8,1.5,1.4h-0.4c-0.8-1.1-1.9-1.6-3.2-1.6
		c-1.1,0-2,0.4-2.8,1.1c-0.8,0.8-1.1,1.7-1.1,2.7c0,1,0.4,1.9,1.2,2.7c0.8,0.8,1.7,1.1,2.8,1.1c0.9,0,1.7-0.3,2.4-0.9
		s1.2-1.3,1.3-2.1H313.7z"/>
	<path d="M328.6,79.3h-4.2l-1.2,2.8h-0.3l3.4-8h0.4l3.4,8h-0.3L328.6,79.3z M326.5,74.4l-2,4.6h3.9L326.5,74.4z"/>
	<path d="M336.9,82.2c-0.6,0-1.2-0.2-1.6-0.6c-0.4-0.4-0.7-0.9-0.7-1.6h0.3c0.1,0.6,0.3,1,0.7,1.4c0.4,0.3,0.8,0.5,1.3,0.5
		c0.6,0,1-0.2,1.4-0.6c0.4-0.4,0.6-0.8,0.6-1.4c0-0.7-0.3-1.2-0.9-1.6c-0.2-0.1-0.6-0.3-1.1-0.4c-0.8-0.2-1.4-0.5-1.7-0.8
		c-0.3-0.3-0.4-0.7-0.4-1.2c0-0.6,0.2-1.1,0.6-1.5c0.4-0.4,0.9-0.6,1.6-0.6c0.6,0,1,0.2,1.4,0.5c0.4,0.3,0.6,0.8,0.7,1.4h-0.3
		c-0.2-1.1-0.8-1.6-1.8-1.6c-0.5,0-1,0.2-1.3,0.5c-0.3,0.3-0.5,0.7-0.5,1.2c0,0.4,0.1,0.8,0.4,1.1c0.3,0.3,0.7,0.5,1.4,0.6
		c0.7,0.2,1.2,0.4,1.5,0.6c0.6,0.4,0.9,1,0.9,1.8c0,0.6-0.2,1.2-0.7,1.6C338.1,82,337.5,82.2,336.9,82.2z"/>
	<path d="M343.5,74.3l0-0.3h4.6v0.3h-2.2v7.7h-0.3v-7.7H343.5z"/>
	<path d="M353.1,82.1v-8h1.8c1,0,1.7,0.1,2.1,0.3c0.3,0.2,0.6,0.5,0.8,0.9c0.2,0.4,0.3,0.8,0.3,1.3c0,0.7-0.2,1.3-0.7,1.8
		c-0.4,0.5-1,0.7-1.7,0.7h-0.3l2.1,3h-0.4l-2.3-3.3h0.5c0.7,0,1.2-0.1,1.5-0.4c0.6-0.4,0.9-1.1,0.9-1.9c0-0.4-0.1-0.7-0.3-1.1
		c-0.2-0.3-0.4-0.6-0.7-0.8c-0.2-0.2-0.6-0.3-1-0.3c-0.2,0-0.5,0-1,0h-1.5v7.7H353.1z"/>
	<path d="M367.2,82.2c-1.2,0-2.1-0.4-2.9-1.2c-0.8-0.8-1.2-1.8-1.2-2.9c0-1.2,0.4-2.2,1.2-3c0.8-0.8,1.8-1.2,2.9-1.2
		c1.2,0,2.2,0.4,3,1.2s1.2,1.8,1.2,3c0,1.2-0.4,2.1-1.2,2.9C369.4,81.8,368.4,82.2,367.2,82.2z M367.2,74.2c-1.1,0-2,0.4-2.7,1.1
		c-0.7,0.7-1.1,1.7-1.1,2.7c0,1.1,0.4,2,1.1,2.8c0.7,0.7,1.7,1.1,2.7,1.1c1.1,0,2-0.4,2.7-1.1s1.1-1.7,1.1-2.7c0-1.1-0.4-2-1.1-2.7
		C369.2,74.6,368.3,74.2,367.2,74.2z"/>
	<path d="M376.7,74.1h0.5l5.5,7.6v-7.6h0.3v8h-0.4l-5.6-7.7v7.7h-0.3V74.1z"/>
	<path d="M392.4,82.2c-1.2,0-2.1-0.4-2.9-1.2c-0.8-0.8-1.2-1.8-1.2-2.9c0-1.2,0.4-2.2,1.2-3c0.8-0.8,1.8-1.2,2.9-1.2
		c1.2,0,2.2,0.4,3,1.2s1.2,1.8,1.2,3c0,1.2-0.4,2.1-1.2,2.9C394.6,81.8,393.6,82.2,392.4,82.2z M392.4,74.2c-1.1,0-2,0.4-2.7,1.1
		c-0.7,0.7-1.1,1.7-1.1,2.7c0,1.1,0.4,2,1.1,2.8c0.7,0.7,1.7,1.1,2.7,1.1c1.1,0,2-0.4,2.7-1.1s1.1-1.7,1.1-2.7c0-1.1-0.4-2-1.1-2.7
		C394.4,74.6,393.5,74.2,392.4,74.2z"/>
	<path d="M401.9,74.1h0.5l3.7,7.5l3.7-7.5h0.5v8h-0.3v-7.7l-3.8,7.7H406l-3.8-7.7v7.7h-0.3V74.1z"/>
	<path d="M416,74.1h0.3v8H416V74.1z"/>
	<path d="M427,79.3h-4.2l-1.2,2.8h-0.3l3.4-8h0.4l3.4,8h-0.3L427,79.3z M424.9,74.4l-2,4.6h3.9L424.9,74.4z"/>
</g>
</svg>
